<?xml version="1.0" encoding="UTF-8"?>
<svg id="Layer_1" data-name="Layer 1" xmlns="http://www.w3.org/2000/svg" viewBox="0 0 114.58 113.39">
  <defs>
    <style>
      .cls-1 {
        fill: #fff;
        stroke-width: 0px;
      }
    </style>
  </defs>
  <path class="cls-1" d="M110.06,34.58c-2.89-6.75-7.03-12.82-12.3-18.02-5.26-5.19-11.39-9.27-18.21-12.12-7.06-2.95-14.55-4.44-22.26-4.44s-15.21,1.49-22.26,4.44c-6.82,2.85-12.94,6.93-18.21,12.12-5.27,5.2-9.41,11.27-12.3,18.02C1.52,41.59,0,49.03,0,56.69s1.52,15.11,4.52,22.11c2.89,6.75,7.03,12.82,12.3,18.02,5.26,5.19,11.39,9.27,18.21,12.12,7.06,2.95,14.55,4.44,22.26,4.44s15.21-1.49,22.26-4.44c6.82-2.85,12.94-6.93,18.21-12.12,5.27-5.2,9.41-11.27,12.3-18.02,3-7.01,4.52-14.44,4.52-22.11s-1.52-15.11-4.52-22.11ZM57.29,101.72c-25.21,0-45.72-20.2-45.72-45.03S32.08,11.67,57.29,11.67s45.72,20.2,45.72,45.03-20.51,45.03-45.72,45.03Z"/>
  <path class="cls-1" d="M79.79,83.16c-5.61,3.37-12.44,5.06-20.5,5.06-9.46,0-17.06-2.84-22.78-8.52-5.72-5.68-8.59-13.01-8.59-22.01s2.86-16.47,8.59-22.09c5.72-5.62,13.32-8.43,22.78-8.43,7.94,0,14.78,1.69,20.5,5.06l-3.85,8.77c-5.49-3.26-11.16-4.89-17-4.89s-10.75,2-14.37,5.99c-3.62,3.99-5.43,9.19-5.43,15.6s1.81,11.75,5.43,15.69c3.62,3.94,8.41,5.9,14.37,5.9s11.5-1.63,17-4.89l3.85,8.77Z"/>
</svg>