<?xml version="1.0" encoding="UTF-8"?>
<svg id="Layer_1" data-name="Layer 1" xmlns="http://www.w3.org/2000/svg" viewBox="0 0 155.19 53.06">
  <defs>
    <style>
      .cls-1 {
        fill: #fff;
        stroke-width: 0px;
      }
    </style>
  </defs>
  <path class="cls-1" d="M154.64,18.47c-.6-1.5-1.62-2.91-2.48-4.41-1.6-2.77-3.39-5.97-5-8.77C145.84,3,144.61.05,141.32,0c-3.42-.05-4.55,2.97-5.79,5.15-3.94,6.92-11.98,20.85-11.98,20.85h3.71s7.68-13.59,11.49-20.45c.49-.88,1.45-2.03,2.58-2.03,1.7,0,2.55,2.03,3.32,3.42,2.05,3.73,4.02,7.29,5.94,10.9.6,1.13,1.83,2.62.99,4.16-.55,1-1.65.94-3.22.94,0,.03-15.15,0-15.15,0v3.07h13.77s3.24.1,4.56-.15c2.17-.41,3.36-2.09,3.66-4.26v-.54c-.07-.96-.24-1.82-.54-2.58Z"/>
  <path class="cls-1" d="M59.45,1.56h16.29l-16.55,23.11c-.15.21-.22.43-.22.66v.68h19.12v-1.56h-16.62L77.98,1.4c.17-.24.26-.5.26-.75V0h-18.79v1.56Z"/>
  <rect class="cls-1" x="84.6" y="0" width="1.89" height="26.02"/>
  <path class="cls-1" d="M118.85.06c-.1.04-.2.13-.29.29l-10.22,18.08c-.1.17-.19.35-.27.54-.08.19-.16.38-.23.58-.14-.39-.29-.76-.48-1.1L96.86.35c-.1-.16-.2-.26-.3-.29-.1-.04-.24-.06-.41-.06h-1.29v26.02h1.64V3.84c0-.33-.02-.67-.05-1.03l10.52,18.2c.18.32.43.48.74.48h.29c.32,0,.56-.16.74-.48l10.24-18.19c-.04.36-.06.69-.06,1.01v22.18h1.65V0h-1.31c-.17,0-.31.02-.4.06Z"/>
  <path class="cls-1" d="M53.18,20.98v-6.34c-3.48,5.82-6.8,11.36-6.8,11.36h3.86s1.22-2.08,2.94-5.02Z"/>
  <path class="cls-1" d="M53.18,11.37v-6.34c-2.68,4.58-6.59,11.25-9,15.43-.51.88-1.51,2.03-2.68,2.03-1.77,0-2.65-2.03-3.45-3.42-2.13-3.73-4.18-7.29-6.18-10.9-.63-1.13-1.9-2.62-1.03-4.16.57-1,1.72-.94,3.34-.94,0-.03,15.75,0,15.75,0V.02h-14.31s-3.37-.1-4.73.15c-2.26.41-3.49,2.09-3.81,4.26v.54c.08.96.25,1.83.57,2.58.62,1.5,1.68,2.91,2.57,4.41,1.66,2.77,3.53,5.97,5.2,8.76,1.38,2.3,2.66,5.25,6.07,5.3,3.55.05,4.73-2.97,6.02-5.15,1.51-2.56,3.61-6.08,5.65-9.49Z"/>
  <path class="cls-1" d="M32.89,21.59v-.55c-.08-.96-.25-1.82-.57-2.57-.62-1.5-1.68-2.91-2.57-4.41-1.66-2.77-3.53-5.97-5.2-8.77C23.17,3,21.89.05,18.48,0c-3.55-.05-4.73,2.97-6.02,5.15C8.36,12.07,0,26,0,26h3.86S11.84,12.41,15.8,5.55c.51-.88,1.51-2.03,2.68-2.03,1.77,0,2.65,2.03,3.45,3.42,2.13,3.73,4.18,7.29,6.18,10.89.63,1.13,1.9,2.62,1.03,4.16-.57,1-1.72.94-3.35.94,0,.02-15.75,0-15.75,0v3.07h14.31s3.37.1,4.74-.15c2.26-.41,3.49-2.1,3.81-4.26Z"/>
  <path class="cls-1" d="M11.21,38.14c-1.14-.68-2.42-1.02-3.84-1.02-2.17,0-3.94.72-5.31,2.17C.69,40.74,0,42.74,0,45.3c0,1.35.29,2.63.88,3.84s1.45,2.17,2.59,2.87c1.14.7,2.44,1.05,3.89,1.05,1.34,0,2.58-.32,3.74-.95,1.16-.63,2.05-1.57,2.68-2.8.63-1.23.95-2.63.95-4.19s-.3-2.92-.9-4.13-1.47-2.16-2.61-2.84ZM11.14,49.7c-.99,1.08-2.25,1.62-3.79,1.62s-2.76-.53-3.75-1.6c-1-1.07-1.5-2.53-1.5-4.38,0-2.32.52-3.97,1.56-4.96s2.28-1.49,3.72-1.49c1.02,0,1.93.26,2.75.77.82.51,1.44,1.24,1.86,2.17.42.93.64,2.03.64,3.28,0,1.98-.5,3.51-1.49,4.59Z"/>
  <polygon class="cls-1" points="26.05 52.79 28.09 52.79 28.09 45.8 35.31 45.8 35.31 43.98 28.09 43.98 28.09 39.22 36.44 39.22 36.44 37.4 26.05 37.4 26.05 52.79"/>
  <polygon class="cls-1" points="47.79 52.79 49.83 52.79 49.83 45.8 57.05 45.8 57.05 43.98 49.83 43.98 49.83 39.22 58.18 39.22 58.18 37.4 47.79 37.4 47.79 52.79"/>
  <rect class="cls-1" x="69.77" y="37.4" width="2.04" height="15.39"/>
  <path class="cls-1" d="M93.38,50.33c-.79.66-1.76.99-2.9.99-.94,0-1.81-.24-2.61-.72-.8-.48-1.4-1.21-1.78-2.19-.38-.98-.57-2.12-.57-3.43,0-1.02.16-2,.48-2.96.32-.96.88-1.72,1.67-2.28.79-.57,1.78-.85,2.97-.85,1.03,0,1.88.26,2.56.77.68.51,1.2,1.33,1.55,2.45l2.01-.47c-.41-1.42-1.14-2.52-2.19-3.31-1.05-.78-2.35-1.18-3.89-1.18-1.36,0-2.6.31-3.73.93-1.13.62-2,1.53-2.61,2.72-.61,1.19-.92,2.59-.92,4.19,0,1.47.27,2.85.81,4.13.54,1.28,1.33,2.26,2.37,2.93s2.39,1.01,4.05,1.01,2.96-.44,4.07-1.32c1.11-.88,1.88-2.15,2.3-3.83l-2.04-.51c-.28,1.3-.82,2.27-1.61,2.93Z"/>
  <rect class="cls-1" x="108.48" y="37.4" width="2.04" height="15.39"/>
  <path class="cls-1" d="M126.93,37.4l-5.91,15.39h2.16l1.69-4.66h6.44l1.8,4.66h2.32l-6.3-15.39h-2.19ZM125.46,46.47l1.69-4.52c.36-.97.63-1.95.83-2.94.24.83.6,1.9,1.09,3.19l1.61,4.26h-5.22Z"/>
  <polygon class="cls-1" points="147.61 37.4 145.57 37.4 145.57 52.79 155.19 52.79 155.19 50.98 147.61 50.98 147.61 37.4"/>
</svg>