<?xml version="1.0" encoding="UTF-8"?>
<svg id="Layer_1" data-name="Layer 1" xmlns="http://www.w3.org/2000/svg" viewBox="0 0 173.27 46.86">
  <defs>
    <style>
      .cls-1 {
        fill: #fff;
        stroke-width: 0px;
      }
    </style>
  </defs>
  <path class="cls-1" d="M172.29,33.27c-1.08-2.71-2.91-5.25-4.46-7.94-2.88-4.99-6.11-10.76-9.01-15.79C156.44,5.4,154.22.08,148.3,0c-6.15-.09-8.2,5.35-10.43,9.28-7.09,12.46-21.58,37.55-21.58,37.55h6.69s13.83-24.47,20.69-36.83c.88-1.58,2.62-3.66,4.64-3.66,3.07,0,4.6,3.65,5.98,6.15,3.69,6.71,7.24,13.14,10.7,19.62,1.09,2.04,3.3,4.72,1.78,7.49-.99,1.81-2.97,1.7-5.8,1.7,0,.05-27.29,0-27.29,0v5.53h24.79s5.84.18,8.2-.27c3.92-.74,6.04-3.77,6.6-7.67v-.98c-.13-1.72-.44-3.29-.98-4.64Z"/>
  <path class="cls-1" d="M.86,2.81h29.34L.4,44.44c-.26.38-.4.77-.4,1.19v1.22h34.44v-2.81H4.5L34.24,2.52c.31-.44.46-.89.46-1.36V0H.86v2.81Z"/>
  <rect class="cls-1" x="46.16" width="3.41" height="46.86"/>
  <path class="cls-1" d="M107.83.1c-.18.07-.35.24-.53.53l-18.41,32.55c-.18.31-.34.63-.48.98-.14.34-.28.69-.41,1.04-.24-.71-.53-1.37-.86-1.99L68.23.63c-.18-.29-.36-.46-.55-.53-.19-.07-.44-.1-.74-.1h-2.32v46.86h2.95V6.92c0-.6-.03-1.21-.1-1.85l18.94,32.78c.33.57.77.86,1.32.86h.53c.57,0,1.02-.29,1.32-.86L108.03,5.1c-.07.64-.1,1.25-.1,1.82v39.94h2.98V0h-2.35c-.31,0-.55.03-.73.1Z"/>
</svg>