<?xml version="1.0" encoding="UTF-8"?>
<svg id="Layer_1" data-name="Layer 1" xmlns="http://www.w3.org/2000/svg" viewBox="0 0 113.39 89.87" fill="var(--text-color)">
  <defs>
    <style>
      .cls-1 {
        fill: #fff;
        stroke-width: 0px;
      }
    </style>
  </defs>
  <path id="Path_37247" data-name="Path 37247" class="cls-1" d="M15.18,6.96v3.31L0,18.33v-3.36L15.18,6.96ZM15.18,0v3.26L0,11.37v-3.51L15.18,0ZM15.83,70.98c-1.56.04-3.08-.45-4.33-1.38-1.26-.97-2.31-2.2-3.06-3.61-.86-1.58-1.51-3.26-1.96-5.01-.48-1.83-.86-3.69-1.13-5.56-.27-1.85-.44-3.62-.53-5.28-.08-1.67-.14-3.07-.18-4.21l-.49-24.9,4.21-4.76v25.75c0,.93.07,2.16.21,3.68.14,1.52.34,3.06.6,4.63.27,1.57.58,3.06.95,4.48.27,1.17.71,2.29,1.3,3.33.74,1.36,1.9,2.44,3.31,3.08,1.29.5,2.67.74,4.06.73h3.11c.44-.01.87.12,1.23.38.37.27.67.61.9,1,.26.44.45.93.55,1.43.12.56.17,1.13.17,1.7,0,.57-.06,1.14-.18,1.7-.1.5-.29.99-.55,1.43-.23.39-.54.73-.9,1-.36.25-.79.39-1.23.38h-6.06ZM18.44,70.98c-.82-.04-1.53-.59-1.75-1.38-.42-.99-.62-2.06-.6-3.13-.02-1.07.19-2.14.6-3.13.23-.79.93-1.34,1.75-1.38h2.68c.92,0,1.8-.02,2.66-.05.85-.03,1.65-.09,2.4-.18.63-.06,1.26-.17,1.88-.33.73-.17,1.37-.59,1.83-1.18.46-.6.84-1.25,1.13-1.95.3-.72.55-1.45.75-2.2.17-.66.39-1.3.65-1.93.04-.11.14-.19.25-.23.14-.05.28-.08.43-.07.14,0,.27.04.38.13.1.09.14.24.1.38-.07.53-.12,1.07-.15,1.6-.03.53-.05.88-.05,1.05-.05,1.04.36,2.05,1.13,2.76.8.7,1.75,1.2,2.78,1.48,1.15.33,2.34.53,3.53.6,1.25.08,2.36.13,3.33.13.86.01,1.61.57,1.88,1.38.43.99.64,2.05.63,3.13.02,1.08-.19,2.14-.63,3.13-.27.81-1.02,1.36-1.88,1.38h-5.76c-.74,0-1.47-.16-2.15-.45-.76-.32-1.48-.74-2.13-1.25-.7-.55-1.34-1.17-1.9-1.85-.59-.7-1.08-1.48-1.48-2.3-.36.69-.78,1.33-1.28,1.93-.56.69-1.18,1.33-1.85,1.9-.66.57-1.38,1.05-2.15,1.45-.69.37-1.45.57-2.23.58h-4.76ZM30.63,87.64l-5.21-5.21,5.21-5.21,5.21,5.21-5.21,5.21ZM53.25,61.96c.2-.02.38-.12.5-.28.18-.2.33-.42.45-.65.13-.25.23-.51.3-.78.06-.21.09-.43.1-.65-.03-.4-.11-.79-.23-1.18-.15-.55-.33-1.13-.55-1.73-.2-.55-.42-1.1-.68-1.63-.14-.34-.34-.66-.6-.92l2.86-7.26c.99,1.31,1.7,2.8,2.1,4.38.43,1.61.65,3.27.65,4.93,0,1.25-.13,2.49-.38,3.71-.25,1.22-.63,2.42-1.13,3.56-.38.83-.84,1.62-1.38,2.35-.62.87-1.32,1.7-2.08,2.46-.74.74-1.56,1.39-2.46,1.93-.75.48-1.62.75-2.51.77h-7.56c-.4,0-.78-.14-1.08-.4-.33-.29-.6-.65-.78-1.05-.21-.47-.36-.97-.45-1.48-.1-.57-.15-1.15-.15-1.73-.02-1.05.18-2.09.6-3.06.28-.78,1.02-1.31,1.85-1.3h12.57ZM57.68,87.64l-5.21-5.21,5.21-5.21,5.36,5.21-5.36,5.21ZM47.16,87.64l-5.36-5.21,5.36-5.21,5.21,5.21-5.21,5.21ZM80.75,58.66c.52.66,1.12,1.25,1.78,1.78.6.46,1.28.8,2,1,.87.24,1.76.38,2.66.43,1.02.07,2.26.1,3.73.1.98-.03,1.89.5,2.33,1.38.53.96.8,2.04.78,3.13.02,1.09-.25,2.17-.78,3.13-.44.87-1.35,1.41-2.33,1.37h-4.71c-.29,1.19-.65,2.36-1.08,3.51-.51,1.4-1.1,2.76-1.77,4.09-.71,1.41-1.5,2.78-2.35,4.1-.83,1.3-1.77,2.51-2.83,3.63-.95,1.01-2.03,1.88-3.23,2.58-1.06.63-2.27.97-3.51.98-1.61,0-3.21-.22-4.76-.65-1.5-.4-2.94-.98-4.31-1.7-1.2-.63-2.31-1.41-3.31-2.33-.79-.69-1.41-1.56-1.8-2.53,1.37.37,2.76.68,4.16.9,1.41.23,2.83.35,4.26.35,1.69-.06,3.34-.48,4.86-1.23,1.85-.85,3.61-1.88,5.26-3.08,1.66-1.2,3.2-2.57,4.58-4.08,1.19-1.23,2.14-2.66,2.83-4.23l-4.21-6.26,1.75-6.37ZM88.17,70.98c-.85,0-1.6-.57-1.85-1.38-.42-.99-.62-2.06-.6-3.13-.02-1.07.19-2.14.6-3.13.25-.81,1-1.37,1.85-1.38h4.76c1.4,0,2.76-.02,4.06-.05,1.3-.03,2.6-.08,3.91-.15,1.3-.07,2.74-.15,4.31-.25,1.17-.02,2.32-.35,3.33-.95.67-.44,1.3-.95,1.88-1.5.04-.93-.05-1.85-.25-2.76-.16-.76-.45-1.49-.85-2.15-.97.76-2,1.45-3.08,2.05-1.04.61-2.22.94-3.43.95-.85.02-1.69-.16-2.46-.53-.68-.34-1.28-.83-1.75-1.43-.48-.62-.82-1.32-1.03-2.08-.22-.81-.33-1.64-.33-2.48.01-.71.09-1.41.23-2.1.17-.9.38-1.78.65-2.66.29-.96.65-1.9,1.08-2.8.4-.88.89-1.72,1.45-2.5.49-.69,1.08-1.3,1.75-1.8.59-.45,1.31-.7,2.05-.7.93.03,1.82.41,2.48,1.08.85.8,1.57,1.73,2.13,2.76.68,1.21,1.25,2.48,1.7,3.78.49,1.36.9,2.73,1.25,4.13.33,1.35.59,2.61.78,3.78.16.93.25,1.86.28,2.8.03,2.1-.44,4.18-1.38,6.07-.9,1.77-2.15,3.34-3.68,4.61-1.56,1.28-3.34,2.27-5.26,2.91-1.97.67-4.03,1.01-6.11,1h-8.47ZM103.29,45.54c-.42.02-.83.16-1.18.4-.42.27-.8.6-1.13.98-.33.38-.61.8-.83,1.25-.2.39-.31.83-.32,1.27,0,.38.11.75.33,1.05.21.3.5.54.83.7.35.17.72.3,1.1.38.36.08.73.12,1.1.13.27-.02.54-.06.8-.13.37-.08.76-.19,1.18-.33.42-.13.83-.29,1.23-.48.33-.15.65-.32.95-.53-.14-.49-.33-.96-.58-1.4-.29-.54-.62-1.05-1-1.53-.36-.46-.78-.88-1.23-1.25-.35-.31-.79-.49-1.26-.52ZM108.03,32.19l-5.21-5.22,5.21-5.21,5.36,5.21-5.36,5.22ZM97.51,32.19l-5.36-5.22,5.36-5.21,5.21,5.21-5.21,5.22Z"/>
</svg>