<?xml version="1.0" encoding="UTF-8"?>
<svg id="Layer_1" data-name="Layer 1" xmlns="http://www.w3.org/2000/svg" viewBox="0 0 198.43 8.26">
  <defs>
    <style>
      .cls-1 {
        fill: #fff;
        stroke-width: 0px;
      }
    </style>
  </defs>
  <path class="cls-1" d="M0,8.17V.09h2.58c.5,0,.92.05,1.28.15.36.1.65.24.88.42.23.18.4.4.51.66.11.26.17.56.17.88,0,.2-.03.39-.09.57-.06.18-.16.36-.28.51-.13.16-.28.3-.47.42-.19.12-.41.23-.67.3.59.12,1.04.33,1.34.64.3.31.45.71.45,1.22,0,.34-.06.65-.19.94-.13.28-.31.52-.55.73-.24.2-.54.36-.89.47-.35.11-.75.17-1.2.17H0ZM1.09,3.71h1.44c.31,0,.57-.03.8-.1.23-.07.41-.16.56-.28.15-.12.26-.27.33-.44.07-.17.11-.36.11-.56,0-.47-.14-.82-.43-1.04s-.73-.33-1.33-.33h-1.48v2.76ZM1.09,4.49v2.81h1.75c.31,0,.58-.04.8-.11.22-.07.41-.17.55-.3.14-.13.25-.28.32-.46s.1-.37.1-.59c0-.42-.15-.75-.44-.99-.3-.24-.74-.36-1.34-.36h-1.74Z"/>
  <path class="cls-1" d="M10.84,8.17h-1.09V.09h1.09v8.08Z"/>
  <path class="cls-1" d="M16.04.13s.1.07.16.15l4.68,6.09c-.01-.1-.02-.19-.02-.28s0-.18,0-.27V.09h.96v8.08h-.55c-.09,0-.16-.01-.22-.05-.06-.03-.12-.08-.17-.15l-4.67-6.08c0,.09.01.19.02.28,0,.09,0,.17,0,.25v5.75h-.96V.09h.56c.1,0,.17.01.22.04Z"/>
  <path class="cls-1" d="M26.82.13s.1.07.16.15l4.68,6.09c-.01-.1-.02-.19-.02-.28s0-.18,0-.27V.09h.96v8.08h-.55c-.09,0-.16-.01-.22-.05-.06-.03-.12-.08-.17-.15l-4.67-6.08c0,.09.01.19.02.28,0,.09,0,.17,0,.25v5.75h-.96V.09h.56c.1,0,.17.01.22.04Z"/>
  <path class="cls-1" d="M41.8.09v.89h-3.88v2.68h3.14v.86h-3.14v2.76h3.88v.89h-4.98V.09h4.98Z"/>
  <path class="cls-1" d="M46.4.13s.1.07.16.15l4.68,6.09c-.01-.1-.02-.19-.02-.28s0-.18,0-.27V.09h.96v8.08h-.55c-.09,0-.16-.01-.22-.05-.06-.03-.12-.08-.17-.15l-4.67-6.08c0,.09.01.19.02.28,0,.09,0,.17,0,.25v5.75h-.96V.09h.56c.1,0,.17.01.22.04Z"/>
  <path class="cls-1" d="M57.6,3.63h.41c.14,0,.26-.02.34-.05.08-.04.16-.1.24-.18l2.69-3.04c.08-.09.16-.16.24-.2.08-.04.18-.06.3-.06h.93l-3.08,3.48c-.08.09-.15.16-.22.22-.07.06-.14.11-.22.15.1.03.2.08.28.15.08.07.16.15.25.25l3.21,3.83h-.95c-.07,0-.13,0-.18-.02-.05-.01-.09-.03-.13-.05-.04-.02-.07-.04-.1-.07-.03-.03-.06-.06-.09-.1l-2.79-3.21s-.08-.08-.12-.12c-.04-.03-.08-.06-.12-.08-.05-.02-.1-.04-.16-.05-.06,0-.14-.01-.23-.01h-.5v3.7h-1.09V.09h1.09v3.54Z"/>
  <path class="cls-1" d="M73.66,4.13c0,.6-.1,1.16-.29,1.67s-.46.94-.81,1.31c-.35.36-.77.65-1.26.85s-1.03.3-1.63.3-1.14-.1-1.62-.3c-.49-.2-.91-.48-1.26-.85s-.62-.8-.81-1.31-.29-1.06-.29-1.67.1-1.16.29-1.67.46-.94.81-1.31c.35-.37.77-.65,1.26-.85.49-.2,1.03-.3,1.62-.3s1.14.1,1.63.3c.49.2.91.49,1.26.85.35.37.62.8.81,1.31s.29,1.06.29,1.67ZM72.54,4.13c0-.5-.07-.94-.2-1.34s-.33-.73-.58-1c-.25-.27-.55-.48-.9-.63s-.75-.22-1.18-.22-.83.07-1.18.22c-.35.15-.65.36-.9.63s-.44.61-.58,1-.2.84-.2,1.34.07.94.2,1.33.33.73.58,1c.25.27.55.48.9.63.35.14.75.22,1.18.22s.83-.07,1.18-.22.65-.35.9-.63c.25-.27.44-.6.58-1s.2-.84.2-1.33Z"/>
  <path class="cls-1" d="M78.61,4.8v3.37h-1.09V.09h2.28c.51,0,.95.05,1.32.16s.68.25.92.45c.24.2.42.43.54.71.12.28.18.59.18.93,0,.29-.05.55-.14.8-.09.25-.22.47-.39.67-.17.2-.38.37-.63.5-.25.14-.53.24-.84.32.14.08.26.19.36.34l2.36,3.21h-.97c-.2,0-.35-.08-.44-.23l-2.1-2.89c-.06-.09-.13-.15-.21-.19-.08-.04-.19-.06-.34-.06h-.83ZM78.61,4h1.14c.32,0,.6-.04.84-.12.24-.08.45-.19.61-.33s.29-.31.37-.5.12-.41.12-.65c0-.48-.16-.84-.48-1.09-.32-.24-.79-.37-1.42-.37h-1.2v3.05Z"/>
  <path class="cls-1" d="M92.14.09v.92h-2.61v7.16h-1.09V1.01h-2.62V.09h6.32Z"/>
  <path class="cls-1" d="M99.97,8.17V.09h2.58c.5,0,.92.05,1.28.15.36.1.65.24.89.42s.4.4.51.66c.11.26.17.56.17.88,0,.2-.03.39-.09.57-.06.18-.16.36-.28.51-.13.16-.28.3-.47.42-.19.12-.41.23-.67.3.59.12,1.04.33,1.34.64.3.31.45.71.45,1.22,0,.34-.06.65-.19.94s-.31.52-.55.73c-.24.2-.54.36-.89.47-.35.11-.75.17-1.2.17h-2.86ZM101.06,3.71h1.44c.31,0,.57-.03.8-.1.23-.07.41-.16.56-.28.15-.12.26-.27.33-.44.07-.17.11-.36.11-.56,0-.47-.14-.82-.43-1.04s-.73-.33-1.33-.33h-1.48v2.76ZM101.06,4.49v2.81h1.75c.31,0,.58-.04.8-.11.22-.07.41-.17.55-.3.14-.13.25-.28.32-.46s.1-.37.1-.59c0-.42-.15-.75-.44-.99-.3-.24-.74-.36-1.34-.36h-1.74Z"/>
  <path class="cls-1" d="M114.5.09v.89h-3.88v2.68h3.14v.86h-3.14v2.76h3.88v.89h-4.98V.09h4.98Z"/>
  <path class="cls-1" d="M122.46,1.35c-.03.06-.07.1-.11.13-.04.03-.09.04-.15.04-.06,0-.14-.03-.22-.1-.08-.06-.19-.13-.32-.21-.13-.08-.29-.15-.47-.21s-.4-.1-.66-.1c-.24,0-.46.03-.65.1-.19.07-.34.16-.47.27-.13.11-.22.25-.28.4-.06.15-.1.32-.1.49,0,.23.06.41.17.56.11.15.26.28.44.38.18.11.39.2.62.27s.47.16.71.24c.24.08.48.18.71.28.23.1.44.23.62.39s.33.35.44.58c.11.23.17.51.17.85,0,.35-.06.68-.18.99-.12.31-.3.58-.53.81-.23.23-.52.41-.85.54-.34.13-.72.2-1.15.2-.52,0-1-.09-1.43-.28-.43-.19-.8-.45-1.1-.77l.32-.52s.07-.08.11-.1c.04-.03.09-.04.14-.04.08,0,.17.04.27.13.1.08.23.18.38.28.15.1.34.19.55.28.22.08.48.13.79.13.26,0,.49-.04.69-.11.2-.07.37-.17.52-.3.14-.13.25-.28.32-.47.08-.18.11-.38.11-.6,0-.24-.06-.44-.17-.6s-.26-.29-.44-.39c-.18-.11-.39-.19-.62-.27s-.47-.15-.71-.23-.48-.17-.71-.27c-.23-.1-.44-.23-.62-.39-.18-.16-.33-.36-.44-.61-.11-.24-.17-.54-.17-.9,0-.29.06-.56.17-.83.11-.27.27-.5.48-.71.21-.21.47-.37.78-.5.31-.12.67-.19,1.07-.19.45,0,.86.07,1.23.21.37.14.7.35.97.62l-.26.52Z"/>
  <path class="cls-1" d="M132.25,6.5c.06,0,.11.02.16.07l.43.47c-.33.38-.73.68-1.2.9s-1.04.32-1.7.32c-.58,0-1.11-.1-1.58-.3s-.88-.48-1.21-.85c-.33-.36-.59-.8-.78-1.31-.18-.51-.28-1.07-.28-1.67s.1-1.17.3-1.67c.2-.51.47-.94.83-1.31.36-.36.78-.65,1.28-.85.5-.2,1.05-.3,1.65-.3s1.11.09,1.54.28c.43.18.81.43,1.15.75l-.36.5s-.06.07-.09.09c-.03.02-.08.04-.15.04-.05,0-.1-.02-.15-.05-.05-.04-.12-.08-.19-.13-.08-.05-.16-.11-.27-.17-.1-.06-.22-.12-.36-.17-.14-.05-.3-.1-.48-.13-.18-.04-.4-.05-.64-.05-.43,0-.83.07-1.19.22-.36.15-.67.36-.93.63s-.46.61-.61,1-.22.84-.22,1.32.07.95.22,1.35c.14.39.34.73.59,1,.25.27.55.48.89.62.34.14.71.21,1.1.21.24,0,.46-.01.65-.04s.37-.07.53-.13c.16-.06.32-.14.46-.23.14-.09.28-.2.43-.33.06-.06.13-.08.19-.08Z"/>
  <path class="cls-1" d="M143.08,8.17h-1.1v-3.67h-4.35v3.67h-1.1V.09h1.1v3.6h4.35V.09h1.1v8.08Z"/>
  <path class="cls-1" d="M148.6,8.17h-1.09V.09h1.09v8.08Z"/>
  <path class="cls-1" d="M154.22,3.63h.41c.14,0,.26-.02.34-.05.08-.04.16-.1.24-.18l2.69-3.04c.08-.09.16-.16.24-.2.08-.04.18-.06.3-.06h.93l-3.08,3.48c-.08.09-.15.16-.22.22-.07.06-.14.11-.22.15.11.03.2.08.28.15.08.07.16.15.25.25l3.21,3.83h-.95c-.07,0-.13,0-.18-.02-.05-.01-.09-.03-.13-.05-.04-.02-.07-.04-.1-.07-.03-.03-.06-.06-.09-.1l-2.79-3.21s-.08-.08-.12-.12-.08-.06-.12-.08c-.05-.02-.1-.04-.16-.05-.06,0-.14-.01-.23-.01h-.5v3.7h-1.09V.09h1.09v3.54Z"/>
  <path class="cls-1" d="M162.95,8.17V.09h2.58c.5,0,.92.05,1.28.15.36.1.65.24.89.42s.4.4.51.66c.11.26.17.56.17.88,0,.2-.03.39-.09.57-.06.18-.16.36-.28.51-.13.16-.28.3-.47.42-.19.12-.41.23-.67.3.59.12,1.04.33,1.34.64.3.31.45.71.45,1.22,0,.34-.06.65-.19.94s-.31.52-.55.73c-.24.2-.54.36-.89.47-.35.11-.75.17-1.2.17h-2.86ZM164.05,3.71h1.44c.31,0,.57-.03.8-.1.23-.07.41-.16.56-.28.15-.12.26-.27.33-.44.07-.17.11-.36.11-.56,0-.47-.14-.82-.43-1.04s-.73-.33-1.33-.33h-1.48v2.76ZM164.05,4.49v2.81h1.75c.31,0,.58-.04.8-.11.22-.07.41-.17.55-.3.14-.13.25-.28.32-.46s.1-.37.1-.59c0-.42-.15-.75-.44-.99-.3-.24-.74-.36-1.34-.36h-1.74Z"/>
  <path class="cls-1" d="M179.15,8.17h-.85c-.1,0-.18-.02-.24-.07-.06-.05-.11-.11-.14-.19l-.76-1.95h-3.62l-.76,1.95c-.03.07-.07.13-.14.18-.06.05-.14.08-.24.08h-.85L174.81.09h1.11l3.23,8.08ZM173.85,5.17h3.02l-1.27-3.29c-.08-.2-.16-.46-.24-.76-.04.15-.08.3-.12.43-.04.13-.08.24-.12.34l-1.27,3.28Z"/>
  <path class="cls-1" d="M189.07,8.17h-.85c-.1,0-.18-.02-.24-.07-.06-.05-.11-.11-.14-.19l-.76-1.95h-3.62l-.76,1.95c-.03.07-.07.13-.14.18-.06.05-.14.08-.24.08h-.85L184.73.09h1.11l3.23,8.08ZM183.77,5.17h3.02l-1.27-3.29c-.08-.2-.16-.46-.24-.76-.04.15-.08.3-.12.43-.04.13-.08.24-.12.34l-1.27,3.28Z"/>
  <path class="cls-1" d="M193.54,4.8v3.37h-1.09V.09h2.28c.51,0,.95.05,1.32.16s.68.25.92.45c.24.2.42.43.54.71.12.28.18.59.18.93,0,.29-.05.55-.14.8-.09.25-.22.47-.39.67-.17.2-.38.37-.63.5-.25.14-.53.24-.84.32.14.08.26.19.36.34l2.36,3.21h-.97c-.2,0-.35-.08-.44-.23l-2.1-2.89c-.06-.09-.13-.15-.21-.19-.08-.04-.19-.06-.34-.06h-.83ZM193.54,4h1.14c.32,0,.6-.04.84-.12.24-.08.45-.19.61-.33s.29-.31.37-.5.12-.41.12-.65c0-.48-.16-.84-.48-1.09-.32-.24-.79-.37-1.42-.37h-1.2v3.05Z"/>
</svg>