<?xml version="1.0" encoding="UTF-8"?>
<svg id="Layer_1" data-name="Layer 1" xmlns="http://www.w3.org/2000/svg" viewBox="0 0 198.43 23.03" fill="var(--text-color)">
  <defs>
    <style>
      .cls-1 {
        fill: #fff;
        stroke-width: 0px;
      }
    </style>
  </defs>
  <path class="cls-1" d="M15.94,13.63c0,1.38-.22,2.63-.66,3.76-.44,1.13-1.05,2.1-1.85,2.9-.8.8-1.75,1.43-2.86,1.87-1.11.44-2.35.66-3.7.66H0V4.43h6.88c1.35,0,2.58.22,3.7.66,1.11.44,2.07,1.07,2.86,1.87.8.81,1.41,1.78,1.85,2.91.44,1.13.66,2.38.66,3.76ZM13.39,13.63c0-1.13-.15-2.14-.46-3.03-.31-.89-.74-1.64-1.31-2.26-.56-.62-1.25-1.09-2.05-1.41s-1.7-.49-2.68-.49H2.5v14.37h4.38c.98,0,1.88-.16,2.68-.49.8-.32,1.49-.79,2.05-1.41s1-1.36,1.31-2.25c.31-.89.46-1.9.46-3.03Z"/>
  <path class="cls-1" d="M35.8,4.43v2.03h-8.83v6.11h7.15v1.95h-7.15v6.28h8.83v2.03h-11.34V4.43h11.34Z"/>
  <path class="cls-1" d="M53.89,16.82c.09.23.18.46.26.69.09-.24.17-.47.27-.69.09-.22.2-.44.32-.66l6.23-11.31c.11-.2.23-.32.35-.36.12-.04.29-.06.51-.06h1.84v18.4h-2.18v-13.52c0-.18,0-.37.01-.58,0-.2.02-.41.04-.63l-6.3,11.5c-.21.38-.51.58-.9.58h-.36c-.39,0-.69-.19-.9-.58l-6.44-11.54c.03.22.05.44.06.65.01.21.02.41.02.59v13.52h-2.18V4.43h1.84c.22,0,.39.02.51.06.12.04.24.16.35.36l6.36,11.32c.12.21.22.42.31.65Z"/>
  <path class="cls-1" d="M75.06,4.51c.11.06.23.17.37.34l10.66,13.86c-.03-.22-.04-.44-.05-.65s-.01-.41-.01-.61V4.43h2.18v18.4h-1.26c-.2,0-.36-.03-.49-.1-.13-.07-.26-.18-.39-.35l-10.64-13.85c.02.21.03.42.04.63,0,.21.01.39.01.57v13.11h-2.18V4.43h1.28c.22,0,.39.03.49.08Z"/>
  <path class="cls-1" d="M112.96,22.83h-1.93c-.22,0-.4-.06-.54-.17-.14-.11-.24-.25-.31-.42l-1.72-4.44h-8.25l-1.72,4.44c-.06.15-.16.29-.31.41-.15.12-.33.18-.54.18h-1.93l7.36-18.4h2.53l7.36,18.4ZM103.01,1.44c0,.19-.04.37-.12.53s-.18.31-.31.44c-.13.13-.28.23-.46.3-.18.07-.36.11-.56.11-.18,0-.35-.04-.52-.11s-.31-.17-.44-.3c-.13-.13-.23-.28-.31-.44s-.12-.34-.12-.53.04-.38.12-.56.18-.33.31-.46c.13-.13.28-.23.44-.31.17-.08.34-.12.52-.12.2,0,.38.04.56.12.17.08.33.18.46.31.13.13.23.28.31.46s.12.36.12.56ZM100.91,16h6.87l-2.89-7.48c-.19-.46-.37-1.04-.55-1.73-.09.35-.19.67-.28.97-.09.3-.18.55-.26.78l-2.89,7.47ZM108.48,1.44c0,.19-.04.37-.12.53-.08.17-.18.31-.31.44-.13.13-.28.23-.45.3s-.35.11-.54.11-.38-.04-.55-.11-.32-.17-.45-.3c-.13-.13-.23-.28-.3-.44s-.11-.34-.11-.53.04-.38.11-.56.17-.33.3-.46c.13-.13.28-.23.45-.31.17-.08.36-.12.55-.12s.37.04.54.12c.17.08.32.18.45.31.13.13.23.28.31.46.08.18.12.36.12.56Z"/>
  <path class="cls-1" d="M132.85,19.03c.14,0,.26.06.37.17l.98,1.07c-.75.87-1.67,1.55-2.74,2.04-1.07.49-2.37.73-3.88.73-1.33,0-2.53-.23-3.61-.69s-2-1.1-2.76-1.93-1.35-1.82-1.77-2.97c-.42-1.15-.63-2.43-.63-3.81s.23-2.66.67-3.81c.45-1.16,1.08-2.15,1.89-2.98s1.79-1.47,2.92-1.93,2.39-.69,3.76-.69,2.52.21,3.5.63c.98.42,1.85.99,2.61,1.71l-.81,1.14c-.06.09-.13.16-.21.21-.08.06-.19.08-.33.08-.11,0-.23-.04-.35-.12-.12-.08-.27-.18-.44-.3s-.37-.25-.6-.38c-.23-.14-.51-.27-.82-.39-.32-.12-.69-.22-1.1-.3-.42-.08-.9-.12-1.45-.12-.98,0-1.88.17-2.7.51s-1.52.82-2.11,1.44-1.05,1.39-1.38,2.29c-.33.9-.49,1.9-.49,3.02s.16,2.17.49,3.07c.33.9.78,1.66,1.35,2.28s1.24,1.09,2.02,1.42c.78.32,1.62.49,2.52.49.55,0,1.04-.03,1.48-.1s.84-.16,1.21-.3c.37-.14.72-.31,1.04-.52.32-.21.64-.46.97-.75.15-.13.29-.19.42-.19Z"/>
  <path class="cls-1" d="M157.52,22.83h-2.5v-8.37h-9.91v8.37h-2.5V4.43h2.5v8.2h9.91V4.43h2.5v18.4Z"/>
  <path class="cls-1" d="M176.57,7.31c-.08.13-.16.22-.24.29-.09.06-.2.1-.33.1-.15,0-.31-.07-.51-.22-.19-.15-.44-.31-.73-.48-.3-.18-.65-.34-1.07-.48s-.92-.22-1.51-.22c-.56,0-1.05.08-1.48.22-.43.15-.78.35-1.07.61-.29.26-.5.56-.65.91-.15.35-.22.72-.22,1.12,0,.51.13.94.38,1.28.25.34.59.63,1,.87.41.24.89.45,1.41.62s1.07.36,1.62.55c.55.19,1.09.4,1.62.64.53.24,1,.53,1.41.89s.75.8,1,1.32c.25.52.38,1.16.38,1.93,0,.8-.14,1.56-.41,2.27-.27.71-.67,1.32-1.2,1.84-.53.52-1.17.93-1.94,1.23-.77.3-1.64.45-2.61.45-1.19,0-2.28-.22-3.25-.65-.98-.43-1.82-1.02-2.51-1.75l.72-1.18c.07-.09.15-.17.25-.24.1-.06.21-.1.33-.1.18,0,.38.1.62.29.23.19.52.4.87.64.35.23.77.44,1.26.64.49.19,1.09.29,1.8.29.59,0,1.12-.08,1.58-.24.46-.16.85-.39,1.17-.69.32-.3.57-.65.74-1.06.17-.41.26-.87.26-1.37,0-.56-.13-1.01-.38-1.37s-.58-.65-.99-.89c-.41-.24-.88-.44-1.41-.61s-1.07-.34-1.62-.51-1.09-.38-1.62-.61c-.53-.23-1-.53-1.41-.9-.41-.37-.74-.83-.99-1.38-.25-.55-.38-1.23-.38-2.05,0-.65.13-1.28.38-1.89.25-.61.62-1.15,1.1-1.62.48-.47,1.07-.85,1.78-1.13.71-.28,1.52-.42,2.43-.42,1.03,0,1.96.16,2.81.49.85.33,1.59.8,2.22,1.41l-.6,1.18Z"/>
  <path class="cls-1" d="M198.43,4.43v2.09h-5.94v16.3h-2.49V6.52h-5.97v-2.09h14.4Z"/>
</svg>