<?xml version="1.0" encoding="UTF-8"?>
<svg id="Layer_1" data-name="Layer 1" xmlns="http://www.w3.org/2000/svg" viewBox="0 0 198.43 23.36" fill="var(--text-color)">
  <defs>
    <style>
      .cls-1 {
        fill: #fff;
        stroke-width: 0px;
      }
    </style>
  </defs>
  <path class="cls-1" d="M14.39,0v2.58H3.18v7.76h9.08v2.48H3.18v7.97h11.21v2.58H0V0h14.39Z"/>
  <path class="cls-1" d="M37.35,15.74c.11.29.23.58.33.87.11-.3.22-.6.34-.87.12-.28.25-.56.41-.84L46.33.54c.14-.25.29-.4.44-.46.15-.05.37-.08.65-.08h2.33v23.36h-2.77V6.19c0-.23,0-.47.02-.73.01-.26.03-.53.05-.8l-8,14.6c-.27.49-.65.73-1.14.73h-.46c-.49,0-.87-.25-1.14-.73l-8.18-14.65c.03.28.06.56.07.83.02.27.02.52.02.75v17.16h-2.77V0h2.33c.28,0,.5.03.65.08.15.06.3.21.44.46l8.07,14.38c.15.26.28.53.4.82Z"/>
  <path class="cls-1" d="M74.77,23.36V0h7.45c1.43,0,2.67.14,3.71.42,1.04.28,1.89.68,2.56,1.21.67.52,1.16,1.16,1.48,1.91.32.76.48,1.61.48,2.55,0,.58-.09,1.13-.27,1.66-.18.53-.45,1.03-.81,1.48-.36.46-.82.86-1.37,1.22-.55.36-1.19.65-1.93.88,1.71.34,2.99.95,3.86,1.84.87.89,1.3,2.06,1.3,3.52,0,.99-.18,1.89-.55,2.71-.36.81-.9,1.52-1.6,2.1-.7.59-1.56,1.04-2.58,1.36-1.02.32-2.18.48-3.48.48h-8.26ZM77.94,10.46h4.17c.89,0,1.66-.1,2.31-.29.65-.2,1.19-.47,1.62-.81.43-.35.75-.77.95-1.26.21-.49.31-1.03.31-1.62,0-1.37-.41-2.37-1.24-3.01s-2.11-.96-3.85-.96h-4.29v7.97ZM77.94,12.71v8.13h5.05c.9,0,1.68-.1,2.32-.31.65-.21,1.18-.5,1.6-.87.42-.38.72-.82.92-1.34s.29-1.08.29-1.7c0-1.21-.43-2.16-1.28-2.86-.85-.7-2.14-1.05-3.87-1.05h-5.04Z"/>
  <path class="cls-1" d="M105.85,13.61v9.75h-3.15V0h6.6c1.48,0,2.75.15,3.83.45,1.08.3,1.96.73,2.67,1.3.7.57,1.22,1.25,1.56,2.05.34.8.51,1.69.51,2.68,0,.83-.13,1.6-.39,2.31-.26.72-.64,1.36-1.13,1.93-.49.57-1.1,1.06-1.81,1.46-.71.4-1.52.71-2.42.91.39.23.74.56,1.04.99l6.81,9.27h-2.8c-.58,0-1-.22-1.27-.67l-6.06-8.34c-.18-.26-.39-.45-.6-.56s-.54-.17-.98-.17h-2.4ZM105.85,11.31h3.31c.92,0,1.74-.11,2.44-.33s1.29-.54,1.76-.95.83-.89,1.07-1.46.36-1.19.36-1.87c0-1.39-.46-2.44-1.38-3.15-.92-.71-2.28-1.06-4.1-1.06h-3.46v8.82Z"/>
  <path class="cls-1" d="M144.28,0v2.58h-11.21v7.76h9.08v2.48h-9.08v7.97h11.21v2.58h-14.39V0h14.39Z"/>
  <path class="cls-1" d="M152.65,0h2.53c.28,0,.51.07.68.21.17.14.3.32.39.54l6.6,16.48c.15.37.29.77.42,1.21.12.43.25.88.37,1.35.1-.47.2-.92.32-1.35.11-.43.25-.84.4-1.21l6.57-16.48c.08-.18.21-.35.39-.51s.41-.24.68-.24h2.54l-9.52,23.36h-2.85L152.65,0Z"/>
  <path class="cls-1" d="M198.43,0v2.58h-11.21v7.76h9.08v2.48h-9.08v7.97h11.21v2.58h-14.39V0h14.39Z"/>
</svg>