<?xml version="1.0" encoding="UTF-8"?>
<svg id="Layer_1" data-name="Layer 1" xmlns="http://www.w3.org/2000/svg" viewBox="0 0 198.43 15.9" fill="var(--text-color)" fill="var(--text-color)">
  <defs>
    <style>
      .cls-1 {
        fill: #fff;
        stroke-width: 0px;
      }
    </style>
  </defs>
  <path class="cls-1" d="M11.87,12.51c.12,0,.22.05.31.14l.83.9c-.64.74-1.41,1.31-2.32,1.73-.91.41-2,.62-3.28.62-1.12,0-2.14-.19-3.05-.58s-1.69-.93-2.33-1.63-1.14-1.54-1.5-2.51c-.35-.98-.53-2.05-.53-3.22s.19-2.25.57-3.22c.38-.98.91-1.82,1.6-2.52s1.51-1.25,2.47-1.63,2.02-.58,3.17-.58,2.13.18,2.96.53c.83.36,1.56.84,2.21,1.44l-.68.97c-.05.07-.11.13-.17.18-.07.05-.16.07-.28.07-.09,0-.19-.03-.3-.1-.1-.07-.23-.15-.37-.26s-.31-.21-.51-.33c-.2-.12-.43-.22-.69-.33-.27-.1-.58-.19-.93-.25-.36-.07-.76-.1-1.23-.1-.83,0-1.59.14-2.28.43s-1.29.69-1.79,1.22-.89,1.17-1.17,1.93c-.28.76-.42,1.61-.42,2.55s.14,1.83.42,2.59c.28.76.66,1.4,1.14,1.93s1.05.92,1.71,1.2c.66.27,1.37.41,2.13.41.46,0,.88-.03,1.25-.08s.71-.14,1.03-.26c.31-.12.61-.26.88-.44.27-.18.54-.39.82-.63.12-.11.24-.16.36-.16Z"/>
  <path class="cls-1" d="M34.57,7.95c0,1.16-.18,2.23-.55,3.21s-.89,1.81-1.56,2.51-1.48,1.25-2.43,1.63c-.94.39-1.99.58-3.13.58s-2.18-.19-3.13-.58-1.75-.93-2.42-1.63-1.19-1.54-1.56-2.51c-.37-.97-.55-2.04-.55-3.21s.18-2.23.55-3.21c.37-.97.89-1.81,1.56-2.52.67-.71,1.48-1.25,2.42-1.64.94-.39,1.98-.59,3.13-.59s2.19.2,3.13.59c.94.39,1.75.94,2.43,1.64.67.7,1.19,1.54,1.56,2.52s.55,2.04.55,3.21ZM32.41,7.95c0-.95-.13-1.81-.39-2.57-.26-.76-.63-1.4-1.11-1.93s-1.06-.93-1.74-1.21c-.68-.28-1.44-.42-2.28-.42s-1.59.14-2.27.42c-.68.28-1.26.69-1.74,1.21s-.85,1.17-1.11,1.93c-.26.76-.39,1.62-.39,2.57s.13,1.81.39,2.57c.26.76.63,1.4,1.11,1.92.48.52,1.06.93,1.74,1.21.68.28,1.44.42,2.27.42s1.6-.14,2.28-.42c.68-.28,1.26-.68,1.74-1.21.48-.52.85-1.16,1.11-1.92.26-.76.39-1.61.39-2.57Z"/>
  <path class="cls-1" d="M49.7,10.65c.08.19.15.38.22.58.07-.2.15-.4.23-.58.08-.18.17-.37.27-.56L55.68.53c.09-.17.19-.27.29-.3.1-.04.25-.05.43-.05h1.55v15.55h-1.84V4.3c0-.15,0-.31.01-.49,0-.17.02-.35.03-.53l-5.33,9.72c-.18.33-.43.49-.76.49h-.3c-.33,0-.58-.16-.76-.49l-5.45-9.76c.02.19.04.37.05.55.01.18.02.35.02.5v11.43h-1.84V.17h1.55c.19,0,.33.02.43.05.1.04.2.14.29.3l5.37,9.57c.1.17.19.36.27.55Z"/>
  <path class="cls-1" d="M68.59,15.73h-2.11V.17h2.11v15.55Z"/>
  <path class="cls-1" d="M78.6.24c.09.05.19.14.31.29l9.01,11.72c-.02-.19-.04-.37-.04-.55s-.01-.35-.01-.52V.17h1.84v15.55h-1.06c-.17,0-.31-.03-.42-.09-.11-.06-.22-.16-.33-.29l-9-11.71c.01.18.03.36.03.53,0,.17.01.33.01.48v11.08h-1.84V.17h1.09c.19,0,.33.02.42.07Z"/>
  <path class="cls-1" d="M104.78,14.2c.42,0,.8-.02,1.16-.06.35-.04.68-.1.99-.18s.6-.18.88-.29c.28-.11.55-.24.83-.39v-3.43h-2.41c-.14,0-.25-.04-.33-.12-.08-.08-.12-.18-.12-.29v-1.19h4.77v5.97c-.39.28-.8.53-1.22.74s-.88.38-1.36.53c-.48.14-1,.25-1.55.31-.55.07-1.15.1-1.79.1-1.13,0-2.16-.19-3.1-.58s-1.75-.93-2.43-1.63c-.68-.7-1.21-1.54-1.59-2.51-.38-.98-.57-2.05-.57-3.22s.19-2.27.56-3.25c.37-.98.9-1.81,1.6-2.51s1.53-1.24,2.51-1.62,2.08-.58,3.29-.58c.61,0,1.19.05,1.71.14.53.09,1.02.22,1.47.39.45.17.87.38,1.25.62.38.24.74.52,1.07.82l-.6.95c-.12.2-.28.29-.48.29-.12,0-.24-.04-.38-.12-.18-.1-.38-.22-.61-.37-.22-.14-.5-.28-.82-.42-.32-.13-.7-.25-1.14-.34-.44-.09-.96-.14-1.56-.14-.88,0-1.67.14-2.38.43s-1.31.69-1.81,1.23-.88,1.18-1.15,1.93-.4,1.6-.4,2.54.14,1.86.42,2.63c.28.77.67,1.42,1.18,1.96.51.54,1.11.94,1.8,1.23.69.28,1.46.42,2.3.42Z"/>
  <path class="cls-1" d="M134.61,2.61c-.07.11-.13.19-.21.24-.07.05-.17.08-.28.08-.12,0-.27-.06-.43-.18-.16-.12-.37-.26-.62-.41-.25-.15-.55-.28-.9-.41s-.78-.18-1.27-.18c-.47,0-.89.06-1.25.19-.36.13-.66.3-.91.52-.24.22-.42.47-.55.77-.12.29-.18.61-.18.95,0,.43.11.79.32,1.08.21.29.5.53.85.73.35.2.75.38,1.19.53s.9.3,1.37.46c.47.16.92.34,1.37.54.45.2.84.45,1.19.75s.63.68.85,1.12c.21.44.32.98.32,1.63,0,.68-.12,1.32-.35,1.92-.23.6-.57,1.12-1.01,1.56-.45.44-.99.79-1.64,1.04-.65.25-1.38.38-2.21.38-1.01,0-1.92-.18-2.75-.55-.83-.37-1.54-.86-2.12-1.48l.61-1c.06-.08.13-.15.21-.2.08-.05.17-.08.28-.08.15,0,.33.08.52.24.2.16.44.34.73.54.29.2.65.37,1.06.54.42.16.92.24,1.53.24.5,0,.94-.07,1.34-.21.39-.14.72-.33.99-.58.27-.25.48-.55.62-.9.15-.35.22-.73.22-1.16,0-.47-.11-.86-.32-1.16s-.49-.55-.84-.75c-.35-.2-.74-.37-1.19-.52s-.9-.29-1.37-.43-.92-.32-1.37-.52c-.45-.2-.84-.45-1.19-.76-.35-.31-.63-.7-.84-1.17-.21-.47-.32-1.04-.32-1.73,0-.55.11-1.08.32-1.6.21-.51.52-.97.93-1.37.41-.4.91-.72,1.5-.95.6-.24,1.28-.36,2.06-.36.87,0,1.66.14,2.38.41.72.28,1.34.67,1.88,1.19l-.51,1Z"/>
  <path class="cls-1" d="M156.94,7.95c0,1.16-.18,2.23-.55,3.21s-.89,1.81-1.56,2.51c-.67.7-1.48,1.25-2.42,1.63s-1.99.58-3.13.58-2.19-.19-3.13-.58c-.94-.39-1.75-.93-2.42-1.63s-1.19-1.54-1.56-2.51-.55-2.04-.55-3.21.18-2.23.55-3.21.89-1.81,1.56-2.52c.67-.71,1.48-1.25,2.42-1.64.94-.39,1.98-.59,3.13-.59s2.19.2,3.13.59c.94.39,1.75.94,2.42,1.64.67.7,1.19,1.54,1.56,2.52s.55,2.04.55,3.21ZM154.78,7.95c0-.95-.13-1.81-.39-2.57s-.63-1.4-1.11-1.93c-.48-.52-1.06-.93-1.74-1.21s-1.44-.42-2.28-.42-1.59.14-2.27.42c-.68.28-1.26.69-1.74,1.21s-.85,1.17-1.11,1.93-.39,1.62-.39,2.57.13,1.81.39,2.57.63,1.4,1.11,1.92c.48.52,1.06.93,1.74,1.21.68.28,1.44.42,2.27.42s1.6-.14,2.28-.42,1.26-.68,1.74-1.21c.48-.52.85-1.16,1.11-1.92s.39-1.61.39-2.57Z"/>
  <path class="cls-1" d="M178.6,7.95c0,1.16-.18,2.23-.55,3.21s-.89,1.81-1.56,2.51c-.67.7-1.48,1.25-2.42,1.63s-1.99.58-3.13.58-2.19-.19-3.13-.58c-.94-.39-1.75-.93-2.42-1.63s-1.19-1.54-1.56-2.51-.55-2.04-.55-3.21.18-2.23.55-3.21.89-1.81,1.56-2.52c.67-.71,1.48-1.25,2.42-1.64.94-.39,1.98-.59,3.13-.59s2.19.2,3.13.59c.94.39,1.75.94,2.42,1.64.67.7,1.19,1.54,1.56,2.52s.55,2.04.55,3.21ZM176.44,7.95c0-.95-.13-1.81-.39-2.57s-.63-1.4-1.11-1.93c-.48-.52-1.06-.93-1.74-1.21s-1.44-.42-2.28-.42-1.59.14-2.27.42c-.68.28-1.26.69-1.74,1.21s-.85,1.17-1.11,1.93-.39,1.62-.39,2.57.13,1.81.39,2.57.63,1.4,1.11,1.92c.48.52,1.06.93,1.74,1.21.68.28,1.44.42,2.27.42s1.6-.14,2.28-.42,1.26-.68,1.74-1.21c.48-.52.85-1.16,1.11-1.92s.39-1.61.39-2.57Z"/>
  <path class="cls-1" d="M187.32.24c.09.05.19.14.31.29l9.01,11.72c-.02-.19-.04-.37-.04-.55s-.01-.35-.01-.52V.17h1.85v15.55h-1.06c-.17,0-.31-.03-.42-.09-.11-.06-.22-.16-.33-.29l-9-11.71c.01.18.02.36.03.53,0,.17.01.33.01.48v11.08h-1.85V.17h1.09c.19,0,.33.02.42.07Z"/>
</svg>