<?xml version="1.0" encoding="UTF-8"?>
<svg id="Layer_1" data-name="Layer 1" xmlns="http://www.w3.org/2000/svg" viewBox="0 0 198.43 41.78">
  <defs>
    <style>
      .cls-1 {
        fill: #fff;
        stroke-width: 0px;
      }
    </style>
  </defs>
  <path id="Path_37247" data-name="Path 37247" class="cls-1" d="M27.1,14.65h-3.55v22.72h-2.77v-14.68h-5.45l-.02.07c.14.16.34.4.61.72.3.37.58.77.81,1.18.29.51.53,1.04.71,1.59.21.62.31,1.27.3,1.92,0,.69-.12,1.38-.35,2.04-.23.66-.58,1.28-1.03,1.81-.48.55-1.07.99-1.73,1.29-.77.34-1.6.51-2.43.49-.86,0-1.71-.16-2.51-.48-.76-.32-1.46-.76-2.08-1.29-.64-.55-1.2-1.18-1.68-1.88-.5-.72-.95-1.47-1.33-2.26-.39-.79-.72-1.59-1.01-2.42-.29-.82-.53-1.6-.74-2.35-.2-.75-.37-1.44-.49-2.07-.12-.63-.22-1.16-.29-1.57l2.5-.49c.32,1.81.77,3.59,1.36,5.33.45,1.34,1.05,2.63,1.78,3.83.54.9,1.26,1.69,2.11,2.31.69.49,1.52.76,2.37.77.5.02.99-.1,1.42-.35.34-.21.63-.5.85-.85.2-.32.34-.67.42-1.03.07-.3.1-.61.11-.92,0-.51-.1-1.01-.28-1.48-.2-.56-.48-1.09-.81-1.57-.38-.56-.83-1.07-1.33-1.52-.56-.5-1.17-.95-1.83-1.32v-1.98h10.03v-5.58H0v-2.48h27.1v2.48ZM46.31,14.65h-20.39v-2.48h20.39v2.48ZM46.8,24.47c-.38-.3-.78-.57-1.2-.8-.31-.17-.63-.32-.97-.44-.24-.08-.49-.14-.74-.18-.17-.02-.33-.03-.5-.03-.48-.01-.95.09-1.39.3-.38.19-.72.46-.99.79-.27.34-.48.73-.6,1.15-.14.45-.2.92-.2,1.39,0,.19,0,.39.03.58.02.2.04.39.06.58h-2.59c-.08-.65-.17-1.28-.29-1.88-.1-.54-.25-1.07-.47-1.57-.18-.42-.45-.78-.79-1.07-.36-.28-.8-.42-1.25-.4-.44-.01-.87.09-1.26.29-.35.19-.65.45-.87.78-.24.36-.41.76-.51,1.18-.12.48-.17.97-.17,1.46-.02,1.04.17,2.06.56,3.03.37.88.88,1.69,1.51,2.4.65.72,1.39,1.36,2.21,1.9.85.56,1.73,1.08,2.64,1.53l-1.37,2.33c-.36-.17-.82-.41-1.37-.74-.61-.36-1.2-.77-1.76-1.21-.66-.52-1.29-1.09-1.87-1.69-.64-.66-1.21-1.39-1.7-2.16-.52-.83-.93-1.72-1.23-2.65-.32-1.01-.48-2.06-.47-3.12,0-.82.13-1.63.39-2.4.24-.71.62-1.37,1.11-1.94.48-.55,1.07-.98,1.73-1.28.71-.32,1.49-.48,2.27-.46.55-.01,1.1.08,1.61.28.43.17.82.4,1.18.69.31.26.59.57.82.9.22.32.41.62.57.9l.08-.02c.19-.44.45-.84.77-1.2.28-.32.62-.58.98-.8.35-.2.73-.35,1.12-.45.39-.1.78-.14,1.18-.14.17,0,.38,0,.62.03.31.03.61.1.9.2.42.15.82.34,1.21.56.54.31,1.06.67,1.55,1.07l-.52,2.31ZM64.55,14.65h-5.73v7.42h-5.7c-1.77,0-3.11.44-4.01,1.31-.95,1.01-1.44,2.37-1.35,3.76-.02.84.14,1.67.45,2.45.28.68.7,1.29,1.23,1.78.54.49,1.18.86,1.87,1.09.76.25,1.55.38,2.35.37.74.03,1.47-.11,2.15-.41-.05-.28-.08-.53-.1-.74-.02-.21-.03-.43-.03-.64,0-.49.06-.98.18-1.46.11-.48.29-.94.54-1.37.23-.4.55-.74.93-1.01.4-.27.88-.4,1.36-.39.32,0,.63.06.93.17.29.11.55.29.77.52.23.25.41.55.52.87.14.39.2.8.19,1.22,0,.43-.06.86-.19,1.28-.12.38-.28.74-.48,1.08-.19.33-.42.64-.67.93-.25.29-.49.55-.73.79.23.5.49.99.79,1.45.26.4.55.79.86,1.15.28.32.59.63.91.91.3.27.61.52.91.76l-2.08,2.18c-.55-.48-1.06-1.01-1.53-1.58-.38-.47-.74-.97-1.07-1.48-.26-.4-.49-.82-.7-1.25-.18-.37-.33-.67-.44-.9-.92.33-1.9.48-2.87.46-1.32.03-2.62-.22-3.84-.72-1.04-.44-1.97-1.1-2.73-1.93-.72-.8-1.28-1.74-1.63-2.76-.36-1.04-.54-2.13-.54-3.23-.02-1.05.17-2.09.56-3.07.35-.85.88-1.61,1.56-2.23.69-.62,1.5-1.08,2.38-1.37.97-.32,1.99-.48,3.02-.46h3.46v-4.95h-14.23v-2.49h22.74v2.48ZM77.52,22.43c.17.53.37,1.11.59,1.73.23.65.5,1.28.8,1.89.31.64.66,1.26,1.05,1.85.38.58.83,1.12,1.34,1.59.49.46,1.05.83,1.66,1.11.64.28,1.33.42,2.03.42.64.02,1.27-.09,1.86-.32.47-.19.89-.48,1.23-.86.32-.37.55-.8.68-1.27.14-.5.21-1.01.21-1.52.05-1.06-.42-2.07-1.26-2.72-1.07-.72-2.35-1.07-3.64-.98-.19,0-.38,0-.57.02s-.38.03-.57.05v-2.57c.08.01.16.02.25.02h.13c.71.01,1.42-.09,2.11-.3.56-.17,1.09-.44,1.55-.8.4-.32.72-.72.95-1.18.21-.44.32-.93.32-1.42,0-.41-.07-.82-.24-1.2-.15-.34-.37-.64-.64-.88-.28-.24-.61-.42-.96-.53-.39-.12-.8-.18-1.22-.18-.29,0-.59.02-.88.06-.3.04-.6.11-.9.19-.34.09-.68.2-1.01.33-.36.14-.76.3-1.21.51l-.96-2.32c.81-.4,1.66-.73,2.54-.97.81-.22,1.65-.33,2.49-.33.77,0,1.53.12,2.26.39.66.24,1.27.6,1.79,1.07.5.46.9,1.01,1.18,1.63.28.64.43,1.34.42,2.05,0,2.02-.96,3.64-2.89,4.87v.07c.69.28,1.33.67,1.89,1.17.33.06.67.1,1.04.14s.7.05,1.01.05c.33,0,.67-.02,1-.07.37-.05.72-.13,1.07-.25.39-.13.76-.31,1.12-.52.41-.25.79-.55,1.14-.88v-9.37h6.32v2.49h-3.55v22.72h-2.77v-12.85l-.07-.02c-.55.39-1.16.67-1.81.85-.57.14-1.16.2-1.74.2-.19,0-.39,0-.59-.03-.2-.02-.41-.04-.62-.06l-.02.07c.19.55.29,1.13.27,1.71,0,.87-.15,1.73-.46,2.54-.29.76-.74,1.45-1.31,2.02-.59.58-1.29,1.03-2.06,1.33-.87.33-1.79.49-2.71.47-1,.01-1.98-.18-2.9-.57-.85-.37-1.63-.86-2.33-1.46-.69-.59-1.3-1.27-1.82-2.02-.5-.72-.95-1.47-1.34-2.26-.35-.7-.65-1.42-.91-2.16-.24-.68-.41-1.25-.52-1.7l2.21-1.02ZM111.57,14.65h-3.55v22.72h-2.77V14.65h-3.85v-2.48h10.18v2.48ZM138.12,14.65h-6.37c.56.96,1.03,1.98,1.39,3.03.35,1.01.53,2.07.53,3.14,0,.78-.12,1.56-.36,2.31-.23.72-.59,1.39-1.07,1.98-.48.59-1.07,1.07-1.74,1.42-.74.38-1.56.59-2.39.62l-.03.08c1.02,1.58,2.16,3.08,3.42,4.47,1.33,1.47,2.8,2.81,4.38,4l-1.81,2.08c-.96-.71-1.87-1.48-2.73-2.31-.86-.83-1.68-1.68-2.44-2.57-.77-.89-1.48-1.78-2.14-2.69-.66-.91-1.26-1.79-1.81-2.65-.55-.86-1.03-1.69-1.46-2.49-.43-.79-.79-1.52-1.1-2.17l2.32-1.25c.33.77.8,1.47,1.38,2.07.47.48,1.11.75,1.78.75.46,0,.91-.12,1.3-.37.38-.25.71-.57.96-.96.26-.4.46-.83.59-1.28.13-.45.2-.91.2-1.38,0-.53-.07-1.05-.2-1.56-.14-.51-.31-1.02-.52-1.5-.21-.49-.45-.97-.72-1.43-.27-.46-.52-.91-.77-1.34h-8.69v-2.48h18.11v2.48ZM149.92,32.6c.38-.12.75-.26,1.11-.42.35-.16.68-.37.98-.62.28-.24.52-.53.7-.85.19-.35.28-.75.27-1.15.03-.89-.42-1.72-1.17-2.19-1-.58-2.16-.86-3.31-.79-.59,0-1.18.06-1.77.18-.58.11-1.14.33-1.65.64-.5.32-.92.75-1.22,1.27-.34.62-.5,1.33-.47,2.04,0,.8.16,1.59.49,2.32.33.72.76,1.38,1.28,1.97.53.6,1.12,1.15,1.76,1.62.63.47,1.28.89,1.95,1.28.59.34,1.21.66,1.83.94.57.25,1.05.45,1.44.6l-1.12,2.33c-.79-.34-1.59-.71-2.41-1.11-.81-.4-1.61-.84-2.38-1.32-.76-.47-1.48-1-2.16-1.58-.66-.56-1.26-1.2-1.77-1.91-.5-.7-.9-1.48-1.18-2.3-.29-.88-.44-1.8-.43-2.72-.02-.85.11-1.7.38-2.51.24-.69.6-1.32,1.06-1.89-.57-.63-1.04-1.36-1.37-2.15-.3-.75-.45-1.55-.44-2.35,0-.46.06-.92.18-1.37.12-.42.34-.81.64-1.12.36-.35.81-.62,1.29-.77.7-.21,1.42-.31,2.15-.29h7.66v-3.75h-15.32v-2.48h22.03v2.49h-3.94v6.22h-9.72c-.37,0-.74.03-1.11.11-.26.06-.51.17-.72.33-.18.14-.31.33-.38.55-.08.25-.11.51-.11.77,0,.39.07.78.2,1.15.19.46.44.88.76,1.25.68-.35,1.41-.6,2.16-.75.81-.17,1.63-.25,2.46-.25.94,0,1.87.11,2.78.34.81.2,1.57.55,2.25,1.02.63.45,1.15,1.05,1.5,1.74.38.77.57,1.62.55,2.48.02.8-.13,1.59-.46,2.32-.29.6-.68,1.14-1.17,1.59-.46.42-.97.77-1.53,1.04-.5.24-1.01.46-1.54.65l-1.03-2.6ZM167.96,14.65h-3.55v22.72h-2.77V14.65h-3.85v-2.48h10.18v2.48ZM189.38,32.6c.38-.12.75-.26,1.11-.42.35-.16.68-.37.98-.62.28-.24.52-.53.7-.85.19-.35.28-.75.27-1.15.03-.89-.42-1.72-1.17-2.19-1-.58-2.16-.86-3.31-.79-.59,0-1.18.06-1.77.18-.58.11-1.14.33-1.65.64-.5.32-.92.75-1.22,1.27-.34.62-.5,1.33-.47,2.04,0,.8.16,1.59.49,2.32.33.72.76,1.38,1.28,1.97.53.6,1.12,1.15,1.77,1.62.63.47,1.28.89,1.95,1.28.59.34,1.21.66,1.83.94.57.25,1.05.45,1.44.6l-1.12,2.33c-.79-.34-1.59-.71-2.41-1.11-.81-.4-1.61-.84-2.38-1.32-.76-.47-1.48-1-2.16-1.58-.66-.56-1.26-1.2-1.77-1.91-.5-.7-.9-1.48-1.18-2.3-.29-.88-.44-1.8-.43-2.72-.02-.85.11-1.7.38-2.51.24-.69.6-1.32,1.06-1.89-.57-.63-1.04-1.36-1.37-2.15-.3-.75-.45-1.55-.44-2.35,0-.46.06-.92.18-1.37.12-.42.34-.81.64-1.12.36-.35.81-.62,1.29-.77.7-.21,1.42-.31,2.15-.29h7.66v-3.75h-15.32v-2.48h22.03v2.49h-3.94v6.22h-9.72c-.37,0-.74.03-1.11.11-.26.06-.51.17-.72.33-.18.14-.31.33-.38.55-.08.25-.11.51-.11.77,0,.39.07.78.2,1.15.19.46.44.88.76,1.25.68-.35,1.41-.6,2.16-.75.81-.17,1.63-.25,2.46-.25.94,0,1.87.11,2.78.34.81.2,1.57.55,2.25,1.02.63.45,1.15,1.05,1.5,1.74.38.77.57,1.62.55,2.48.02.8-.13,1.59-.46,2.32-.29.6-.68,1.14-1.17,1.59-.46.42-.97.77-1.53,1.04-.5.24-1.01.46-1.54.65l-1.03-2.6ZM195.72,12.64h-2.25l-.61-.54c-.88-.78-1.65-1.43-2.32-1.97s-1.27-.98-1.79-1.33c-.44-.3-.9-.58-1.39-.81-.36-.18-.74-.32-1.13-.42-.33-.09-.67-.14-1.01-.16-.33-.02-.67-.03-1.03-.03h-3.25v-2.4h3.01c.46,0,.92.03,1.37.09.41.06.82.17,1.21.32.41.16.8.36,1.18.59.45.28.88.59,1.29.92.47.37.99.81,1.56,1.32.57.51,1.22,1.09,1.95,1.76l.1-.07c-.65-1.07-1.23-2-1.74-2.78-.51-.78-.97-1.45-1.39-2-.35-.47-.74-.92-1.15-1.34-.3-.31-.64-.59-1.01-.81-.31-.18-.65-.32-1-.39-.36-.07-.73-.1-1.1-.1h-3.28V0h3.09c.59,0,1.18.06,1.75.19.53.13,1.03.36,1.47.68.52.38.99.83,1.39,1.34.55.69,1.06,1.42,1.51,2.17.55.89,1.16,1.94,1.83,3.18.67,1.23,1.45,2.69,2.34,4.35l.39.73Z"/>
</svg>