<?xml version="1.0" encoding="UTF-8"?>
<svg id="Layer_1" data-name="Layer 1" xmlns="http://www.w3.org/2000/svg" viewBox="0 0 198.43 45.99" fill="var(--text-color)">
  <defs>
    <style>
      .cls-1 {
        fill: #fff;
        stroke-width: 0px;
      }
    </style>
  </defs>
  <path id="Path_37247" data-name="Path 37247" class="cls-1" d="M45.5,17.91c0,.27-.14.4-.43.4l-6.55-.1h-2.37v14.81l.1,5.92c0,.29-.13.43-.4.43h-2.49c-.27,0-.4-.14-.4-.43l.1-5.92v-14.8h-10.78c.05,3.57-.29,7.13-1.03,10.62-.75,3.04-2.1,5.9-3.98,8.41-.29.37-.5.55-.65.55-.18,0-.45-.17-.78-.5-.52-.53-1.11-.97-1.76-1.31,2.18-2.55,3.67-5.62,4.33-8.91.61-3.75.88-7.55.78-11.36v-4.43c.03-2.21-.09-4.41-.35-6.6,1.09.22,2.14.56,3.15,1.03,5.15-.85,10.2-2.25,15.06-4.18.94-.38,1.82-.9,2.62-1.54.87.68,1.67,1.44,2.39,2.27.17.19.28.43.3.68,0,.29-.21.45-.63.5-.66.04-1.31.15-1.94.35-5.67,2.11-11.53,3.69-17.5,4.71v6.85h16.24l6.55-.1c.29,0,.43.13.43.4v2.25ZM47.23,40.72c-.51.71-.83,1.54-.93,2.42-.03.36-.15.71-.35,1.01-.27.14-.58.2-.88.18-6.71.42-12.75.63-18.1.63-6.24,0-10.47-.57-12.68-1.71-2.2-1.08-3.96-2.9-4.96-5.14-1.74,1.81-3.58,3.52-5.52,5.11-.38.32-.74.67-1.08,1.03-.1.25-.33.43-.6.45-.26-.02-.5-.17-.63-.4-.57-.87-1.06-1.79-1.49-2.74,1.09-.57,2.14-1.21,3.15-1.92,1.76-1.23,3.39-2.64,4.83-4.23v-12.72h-3.83l-3.6.1c-.27,0-.4-.14-.4-.43v-2.27c-.03-.19.11-.37.3-.4.03,0,.07,0,.1,0l3.6.1h2.79l3.73-.1c.19-.03.37.11.4.3,0,.03,0,.07,0,.1l-.1,4.81v10.62c.77,2.21,2.38,4.02,4.49,5.04,1.78.86,5.2,1.28,10.27,1.28,7.18-.02,14.36-.39,21.5-1.13ZM11.91,10.1c.06.07.11.16.13.25,0,.1-.16.28-.48.53l-1.28.96c-.19.18-.43.32-.68.4-.08,0-.18-.1-.3-.3-1.82-2.99-4.01-5.74-6.52-8.18-.14-.1-.21-.18-.21-.25,0-.1.18-.28.53-.53l1.18-.88c.15-.14.33-.23.53-.28.13.02.26.08.35.18,2.53,2.45,4.8,5.17,6.75,8.11ZM89.66,43.97c.03.19-.11.37-.3.4-.03,0-.07,0-.1,0h-2.49c-.19.03-.37-.11-.4-.3,0-.03,0-.07,0-.1v-3.15h-23.87v3.25c0,.27-.12.4-.35.4h-2.53c-.19.03-.37-.11-.4-.3,0-.03,0-.07,0-.1l.09-17.67v-9.95l-.1-12.99c0-.29.13-.43.4-.43l7.18.1h15.32l7.18-.1c.27,0,.4.14.4.43l-.1,11.68v11.26l.1,17.57ZM86.36,37.88v-14.93h-23.87v14.93h23.87ZM86.36,20.05V6.08h-23.87v13.97h23.87ZM144.27,43.22c.07.07.11.16.13.25,0,.12-.21.29-.63.5l-1.61.93c-.22.13-.46.24-.71.3-.12,0-.23-.1-.33-.3-1.04-1.96-1.95-3.59-2.72-4.88-6.53,1.01-15.71,2.05-27.55,3.13-.72.04-1.43.23-2.06.58-.19.14-.42.22-.65.25-.25,0-.43-.2-.53-.6-.35-1.12-.65-2.25-.88-3.4.57.02,1.18.02,1.84.02,1.06,0,2.36-.05,3.9-.15l1.54-.02c2.68-5.73,5.01-11.63,6.98-17.64.61-1.78,1.08-3.61,1.39-5.47,1.33.34,2.43.66,3.3.98.45.17.68.39.68.68-.04.27-.16.51-.35.71-.54.78-.97,1.64-1.26,2.54-2.42,6.75-4.81,12.71-7.18,17.88,6.36-.52,12.77-1.21,19.24-2.06-1.97-3.07-4.13-6.01-6.47-8.81-.06-.06-.11-.14-.13-.23,0-.12.21-.32.63-.6l1.33-.81c.15-.13.33-.22.53-.28.08,0,.2.08.35.23,4.21,5.09,7.97,10.54,11.23,16.29ZM150.11,21.86c-.7.56-1.28,1.26-1.71,2.04-.29.49-.5.73-.65.73-.27-.08-.52-.22-.73-.4-7.73-5.28-13.85-12.6-17.68-21.15-.04-.08-.06-.16-.08-.25,0-.14.19-.29.58-.45l1.44-.63c.19-.11.39-.19.6-.23.12,0,.23.11.33.33,1.96,4.41,4.65,8.46,7.96,11.98,2.9,3.15,6.25,5.86,9.94,8.03ZM122.72,3.41c-.02.25-.15.47-.35.6-.39.3-.71.69-.93,1.13-1.99,4.13-4.5,8-7.45,11.51-2.59,2.94-5.5,5.58-8.69,7.86-.23.2-.49.35-.78.45-.14,0-.37-.23-.71-.68-.46-.72-1.08-1.32-1.81-1.76,3.93-2.36,7.43-5.36,10.35-8.89,2.32-2.75,4.25-5.81,5.74-9.09.44-.93.74-1.93.88-2.95,1.07.28,2.11.64,3.12,1.08.42.2.63.44.63.73ZM198.43,40.37c0,1.91-.44,3.22-1.33,3.93-.62.48-1.36.77-2.14.86-1.36.14-2.73.2-4.1.18-.31.04-.63-.01-.91-.15-.14-.26-.23-.54-.28-.83-.2-.8-.51-1.56-.93-2.27,1.25.14,2.5.21,3.75.21.81.11,1.64-.09,2.32-.56.35-.57.5-1.25.43-1.91v-22.96h-9.44l-5.59.1c-.3,0-.45-.13-.45-.4l.1-4.43v-5.99l-.1-4.43c0-.27.15-.4.45-.4l5.59.1h6.6l5.59-.1c.19-.03.37.11.4.3,0,.03,0,.07,0,.1l-.1,7.38v23.83l.15,7.48ZM195.23,14.38v-4.07h-12.44v4.08h12.44ZM195.23,7.83v-3.92h-12.44v3.93h12.44ZM174.91,16.55c.03.19-.11.37-.3.4-.03,0-.07,0-.1,0l-5.16-.1h-9.34v18.01l.1,10.73c.03.19-.11.37-.3.4-.03,0-.07,0-.1,0h-2.45c-.19.03-.38-.1-.41-.3,0-.03,0-.07,0-.1l.1-10.73V12.52l-.1-10.83c-.03-.19.11-.37.3-.4.03,0,.07,0,.1,0l5.84.1h6.24l5.16-.1c.19-.03.37.11.4.3,0,.03,0,.07,0,.1l-.1,4.76v5.34l.12,4.76ZM171.87,14.38v-4.07h-11.86v4.08h11.86ZM171.87,7.83v-3.92h-11.86v3.93h11.86ZM191.93,32.34c0,.27-.14.4-.43.4l-7-.1h-.73v5.52l.1,5.66c0,.29-.13.43-.4.43h-2.29c-.27,0-.4-.14-.4-.43l.1-5.66v-5.51h-7.32c-.23,2.02-.75,4-1.55,5.87-1.04,2.29-2.62,4.29-4.61,5.84-.18.19-.4.33-.65.4-.14,0-.41-.2-.83-.6-.52-.53-1.13-.95-1.81-1.24,2.22-1.23,4.02-3.1,5.16-5.36.77-1.53,1.23-3.2,1.33-4.91h-.3l-7,.1c-.29,0-.43-.13-.43-.4v-1.91c0-.27.14-.4.43-.4l7,.1h.53c.1-3.22.15-5.28.15-6.17l-5.79.1c-.3,0-.45-.13-.45-.4v-1.91c0-.27.15-.4.45-.4l6.67.1h11.43l6.72-.1c.24,0,.35.13.35.4v1.91c0,.27-.12.4-.35.4l-6.24-.1v6.17h.73l7-.1c.29,0,.43.13.43.4v1.91ZM180.88,30.12v-6.17h-6.97c0,2.4-.05,4.46-.15,6.17h7.13Z"/>
</svg>