<?xml version="1.0" encoding="UTF-8"?>
<svg id="Layer_1" data-name="Layer 1" xmlns="http://www.w3.org/2000/svg" viewBox="0 0 198.43 20.64" fill="var(--text-color)">
  <defs>
    <style>
      .cls-1 {
        fill: #fff;
        stroke-width: 0px;
      }
    </style>
  </defs>
  <path class="cls-1" d="M7.37,14.86c0,.9-.11,1.71-.33,2.43-.22.71-.55,1.32-.98,1.81-.43.49-.97.87-1.6,1.13-.63.26-1.36.4-2.18.4-.73,0-1.49-.11-2.28-.32.01-.22.03-.43.06-.65.02-.21.05-.43.07-.64.01-.13.06-.23.14-.31s.2-.12.36-.12c.14,0,.32.03.54.1.23.07.53.1.9.1.5,0,.94-.07,1.33-.23.39-.15.72-.38.98-.7.27-.32.47-.72.61-1.21.14-.49.21-1.08.21-1.76V4.27h2.18v10.59Z"/>
  <path class="cls-1" d="M22.12,18.71c.67,0,1.27-.11,1.8-.34s.97-.54,1.34-.95c.37-.41.64-.89.84-1.46.19-.56.29-1.19.29-1.86V4.27h2.18v9.84c0,.93-.15,1.8-.45,2.6-.3.8-.72,1.49-1.28,2.07-.55.58-1.23,1.04-2.03,1.37-.8.33-1.69.5-2.69.5s-1.89-.17-2.69-.5c-.8-.33-1.48-.79-2.03-1.37s-.98-1.27-1.28-2.07c-.3-.8-.45-1.66-.45-2.6V4.27h2.18v9.82c0,.68.1,1.3.29,1.86s.47,1.05.84,1.46c.37.41.81.73,1.34.96.53.23,1.13.34,1.8.34Z"/>
  <path class="cls-1" d="M48.11,4.27v.81c0,.26-.08.5-.24.72l-9.16,12.86h9.24v1.78h-12.11v-.86c0-.23.07-.44.21-.64l9.17-12.9h-8.95v-1.78h11.83ZM43.59,1.39c0,.18-.04.35-.11.52-.08.17-.18.31-.3.43-.13.12-.28.22-.45.3-.17.07-.35.11-.54.11s-.35-.04-.52-.11c-.17-.08-.31-.18-.44-.3-.12-.12-.22-.27-.29-.43s-.11-.34-.11-.52.04-.37.11-.53.17-.31.29-.44c.12-.13.27-.23.44-.3.17-.07.34-.11.52-.11s.37.04.54.11.32.18.45.3c.13.13.23.28.3.44.07.17.11.34.11.53Z"/>
  <path class="cls-1" d="M62.52,4.27h1.82c.2,0,.36.05.49.15.13.1.21.22.26.37l3.34,11.25c.06.2.11.42.16.66.05.23.1.48.14.73.05-.26.11-.5.16-.74.05-.24.11-.45.18-.65l3.81-11.25c.05-.13.13-.25.27-.36s.29-.16.48-.16h.63c.2,0,.36.05.48.15.12.1.21.22.27.37l3.78,11.25c.14.39.26.84.36,1.34.05-.25.09-.49.12-.71.04-.23.09-.44.15-.63l3.35-11.25c.04-.14.12-.26.25-.36.13-.1.29-.16.48-.16h1.7l-5.05,16.18h-1.96l-4.1-12.34c-.08-.23-.16-.51-.23-.81-.04.15-.07.3-.11.44-.03.14-.07.26-.11.38l-4.12,12.34h-1.97l-5.05-16.18Z"/>
  <path class="cls-1" d="M94.26,11.36h.82c.29,0,.51-.04.68-.11.17-.07.33-.19.48-.37l5.39-6.1c.17-.19.33-.32.48-.4.15-.08.35-.12.59-.12h1.86l-6.17,6.97c-.16.17-.31.32-.45.44-.14.12-.29.22-.45.29.21.07.4.17.55.3.16.14.32.31.5.51l6.44,7.67h-1.9c-.14,0-.26-.01-.36-.03-.1-.02-.18-.05-.25-.09-.07-.04-.14-.09-.2-.15-.06-.06-.12-.12-.18-.19l-5.59-6.42c-.08-.09-.16-.17-.23-.23s-.15-.12-.25-.16-.2-.08-.33-.1c-.12-.02-.28-.03-.46-.03h-.99v7.41h-2.18V4.27h2.18v7.09Z"/>
  <path class="cls-1" d="M114.16,13.7v6.75h-2.18V4.27h4.57c1.02,0,1.91.1,2.65.31s1.36.51,1.85.9c.49.39.85.86,1.08,1.42.23.55.35,1.17.35,1.86,0,.57-.09,1.11-.27,1.6-.18.5-.44.94-.79,1.34-.34.39-.76.73-1.25,1.01-.49.28-1.05.49-1.68.63.27.16.51.39.72.69l4.72,6.43h-1.94c-.4,0-.69-.15-.88-.46l-4.2-5.78c-.13-.18-.27-.31-.42-.39-.15-.08-.38-.12-.68-.12h-1.66ZM114.16,12.11h2.29c.64,0,1.2-.08,1.69-.23.49-.15.89-.37,1.22-.66s.57-.62.74-1.01.25-.82.25-1.3c0-.96-.32-1.69-.95-2.18-.64-.49-1.58-.73-2.84-.73h-2.39v6.11Z"/>
  <path class="cls-1" d="M145.33,12.37c0,1.21-.19,2.32-.58,3.34s-.93,1.88-1.63,2.61c-.7.73-1.54,1.3-2.52,1.7s-2.07.6-3.26.6-2.27-.2-3.25-.6c-.98-.4-1.82-.97-2.52-1.7s-1.24-1.6-1.63-2.61-.58-2.13-.58-3.34.19-2.32.58-3.34.93-1.89,1.63-2.62c.7-.73,1.54-1.3,2.52-1.71.98-.41,2.06-.61,3.25-.61s2.28.2,3.26.61c.98.41,1.82.98,2.52,1.71.7.73,1.24,1.61,1.63,2.62s.58,2.13.58,3.34ZM143.08,12.37c0-.99-.13-1.89-.41-2.68s-.66-1.46-1.15-2c-.5-.55-1.1-.97-1.81-1.26s-1.5-.44-2.37-.44-1.65.15-2.36.44c-.71.29-1.31.71-1.81,1.26s-.89,1.21-1.16,2-.41,1.68-.41,2.68.13,1.88.41,2.67.66,1.45,1.16,2c.5.55,1.11.96,1.81,1.25.71.29,1.49.43,2.36.43s1.66-.14,2.37-.43,1.31-.71,1.81-1.25c.5-.54.88-1.21,1.15-2s.41-1.68.41-2.67ZM141.22.33l-3.32,2.44c-.13.09-.24.15-.34.18s-.23.05-.38.05h-1.56l2.38-2.29c.08-.07.15-.14.21-.18s.13-.08.2-.11c.07-.03.14-.05.23-.06.08-.01.19-.02.32-.02h2.27Z"/>
  <path class="cls-1" d="M162.75,4.27v1.84h-5.23v14.34h-2.19V6.11h-5.25v-1.84h12.67Z"/>
  <path class="cls-1" d="M179.87,17.11c.12,0,.23.05.33.15l.86.94c-.66.77-1.47,1.37-2.41,1.8s-2.08.64-3.42.64c-1.17,0-2.23-.2-3.17-.6s-1.76-.97-2.43-1.69c-.67-.73-1.19-1.6-1.56-2.61-.37-1.02-.55-2.13-.55-3.35s.2-2.34.59-3.35c.4-1.02.95-1.89,1.67-2.62.71-.73,1.57-1.3,2.57-1.7,1-.4,2.1-.6,3.3-.6s2.22.19,3.08.55c.86.37,1.63.87,2.3,1.5l-.71,1c-.05.08-.11.14-.18.19-.07.05-.17.07-.29.07-.1,0-.2-.04-.31-.11-.11-.07-.24-.16-.39-.27-.15-.11-.33-.22-.53-.34-.2-.12-.44-.23-.72-.34-.28-.1-.6-.19-.97-.26-.37-.07-.79-.11-1.28-.11-.87,0-1.66.15-2.38.45-.72.3-1.34.72-1.86,1.27s-.92,1.22-1.21,2.01-.43,1.68-.43,2.65.14,1.91.43,2.7c.29.79.68,1.46,1.19,2,.5.55,1.09.96,1.78,1.25.68.29,1.42.43,2.21.43.48,0,.92-.03,1.3-.08s.74-.14,1.07-.27c.33-.12.63-.27.91-.46.28-.19.57-.4.85-.66.13-.11.25-.17.37-.17Z"/>
  <path class="cls-1" d="M198.43,4.27v1.78h-7.77v5.38h6.29v1.72h-6.29v5.52h7.77v1.78h-9.97V4.27h9.97Z"/>
</svg>