<?xml version="1.0" encoding="UTF-8"?>
<svg id="Layer_1" data-name="Layer 1" xmlns="http://www.w3.org/2000/svg" viewBox="0 0 198.43 14.56">
  <defs>
    <style>
      .cls-1 {
        fill: #fff;
        stroke-width: 0px;
      }
    </style>
  </defs>
  <path class="cls-1" d="M1.92,6.4h.73c.25,0,.45-.03.6-.09.15-.06.29-.17.42-.32L8.41.62c.15-.16.29-.28.42-.35.14-.07.31-.1.52-.1h1.64l-5.43,6.13c-.14.15-.27.28-.39.39-.12.11-.25.19-.39.26.19.06.35.15.49.27.14.12.28.27.44.45l5.66,6.75h-1.67c-.13,0-.23,0-.32-.03-.09-.02-.16-.05-.22-.08-.06-.03-.12-.08-.17-.13-.05-.05-.11-.11-.16-.17l-4.92-5.65c-.07-.08-.14-.15-.2-.2s-.14-.1-.22-.14-.18-.07-.29-.08c-.11-.02-.24-.02-.4-.02h-.87v6.52H0V.16h1.92v6.24Z"/>
  <path class="cls-1" d="M30.24,7.28c0,1.07-.17,2.05-.51,2.94s-.81,1.66-1.43,2.3-1.36,1.14-2.22,1.5c-.86.35-1.82.53-2.87.53s-2-.18-2.86-.53-1.6-.85-2.22-1.5-1.09-1.41-1.43-2.3c-.34-.89-.51-1.87-.51-2.94s.17-2.05.51-2.94c.34-.89.81-1.66,1.43-2.3.62-.65,1.35-1.15,2.22-1.51.86-.36,1.82-.54,2.86-.54s2,.18,2.87.54c.86.36,1.6.86,2.22,1.51.62.65,1.09,1.41,1.43,2.3s.51,1.87.51,2.94ZM28.26,7.28c0-.87-.12-1.66-.36-2.36-.24-.7-.58-1.28-1.01-1.76s-.97-.85-1.59-1.11c-.62-.26-1.32-.39-2.09-.39s-1.45.13-2.08.39c-.62.26-1.15.63-1.59,1.11s-.78,1.07-1.02,1.76c-.24.7-.36,1.48-.36,2.36s.12,1.66.36,2.35c.24.69.58,1.28,1.02,1.76.44.48.97.85,1.59,1.1.62.26,1.31.38,2.08.38s1.46-.13,2.09-.38c.62-.26,1.15-.62,1.59-1.1.44-.48.77-1.07,1.01-1.76.24-.69.36-1.48.36-2.35Z"/>
  <path class="cls-1" d="M44.1,9.75c.07.18.14.35.2.53.07-.19.14-.36.21-.53.07-.17.16-.34.25-.51L49.58.49c.09-.15.18-.24.27-.28.09-.03.23-.05.4-.05h1.42v14.24h-1.69V3.94c0-.14,0-.29,0-.45,0-.16.02-.32.03-.49l-4.88,8.9c-.17.3-.4.45-.7.45h-.28c-.3,0-.53-.15-.7-.45l-4.99-8.93c.02.17.03.34.04.51.01.17.02.32.02.46v10.46h-1.69V.16h1.42c.17,0,.3.02.4.05.09.03.18.13.27.28l4.92,8.76c.09.16.17.33.24.5Z"/>
  <path class="cls-1" d="M66.36,9.75c.07.18.14.35.2.53.07-.19.14-.36.21-.53.07-.17.16-.34.25-.51L71.84.49c.09-.15.18-.24.27-.28.09-.03.23-.05.4-.05h1.42v14.24h-1.69V3.94c0-.14,0-.29,0-.45,0-.16.02-.32.03-.49l-4.88,8.9c-.17.3-.4.45-.7.45h-.28c-.3,0-.53-.15-.7-.45l-4.99-8.93c.02.17.03.34.04.51.01.17.02.32.02.46v10.46h-1.69V.16h1.42c.17,0,.3.02.4.05.09.03.18.13.27.28l4.92,8.76c.09.16.17.33.24.5Z"/>
  <path class="cls-1" d="M90.14.16v1.57h-6.84v4.73h5.53v1.51h-5.53v4.86h6.84v1.57h-8.77V.16h8.77Z"/>
  <path class="cls-1" d="M99,8.46v5.94h-1.92V.16h4.02c.9,0,1.68.09,2.34.27s1.2.45,1.62.79.74.76.95,1.25.31,1.03.31,1.63c0,.5-.08.97-.24,1.41-.16.44-.39.83-.69,1.18-.3.35-.67.64-1.1.89-.43.25-.93.43-1.48.56.24.14.45.34.64.61l4.15,5.65h-1.71c-.35,0-.61-.14-.77-.41l-3.7-5.09c-.11-.16-.24-.27-.37-.34s-.33-.1-.6-.1h-1.46ZM99,7.06h2.02c.56,0,1.06-.07,1.49-.2.43-.14.78-.33,1.07-.58.29-.25.5-.55.65-.89s.22-.72.22-1.14c0-.85-.28-1.49-.84-1.92-.56-.43-1.39-.65-2.5-.65h-2.11v5.38Z"/>
  <path class="cls-1" d="M128.77,2.39c-.06.1-.12.17-.19.22-.07.05-.15.07-.26.07-.11,0-.24-.06-.39-.17-.15-.11-.34-.24-.57-.37-.23-.14-.5-.26-.82-.37s-.71-.17-1.17-.17c-.43,0-.81.06-1.14.17-.33.12-.61.27-.83.47-.22.2-.39.43-.5.7-.11.27-.17.56-.17.87,0,.4.1.73.29.99.2.26.45.49.78.67.32.19.69.35,1.09.48s.82.28,1.25.42c.43.15.85.31,1.25.49.41.18.77.41,1.09.69s.58.62.78,1.02c.2.4.29.9.29,1.49,0,.62-.11,1.21-.32,1.75-.21.55-.52,1.02-.93,1.43-.41.4-.91.72-1.5.95-.59.23-1.27.35-2.02.35-.92,0-1.76-.17-2.52-.5-.76-.33-1.41-.79-1.94-1.36l.56-.91c.05-.07.12-.13.19-.18.08-.05.16-.07.25-.07.14,0,.3.07.48.22.18.15.4.31.67.49.27.18.59.34.97.49.38.15.85.22,1.4.22.46,0,.86-.06,1.22-.19.36-.13.66-.3.91-.53.25-.23.44-.5.57-.82.13-.32.2-.67.2-1.06,0-.43-.1-.78-.29-1.06s-.45-.51-.77-.69c-.32-.19-.68-.34-1.09-.47s-.82-.26-1.25-.4-.84-.29-1.25-.47c-.41-.18-.77-.41-1.09-.7-.32-.29-.57-.64-.77-1.07-.2-.43-.29-.96-.29-1.58,0-.5.1-.99.29-1.46.2-.47.48-.89.85-1.25.37-.36.83-.66,1.38-.87.55-.22,1.17-.33,1.88-.33.79,0,1.52.13,2.18.38.66.25,1.23.62,1.72,1.09l-.47.91Z"/>
  <path class="cls-1" d="M137.36.22c.08.04.18.13.28.26l8.25,10.73c-.02-.17-.03-.34-.04-.5s0-.32,0-.47V.16h1.69v14.24h-.97c-.15,0-.28-.03-.38-.08-.1-.05-.2-.14-.3-.27l-8.24-10.72c.01.16.02.33.03.49,0,.16.01.3.01.44v10.15h-1.69V.16h.99c.17,0,.3.02.38.07Z"/>
  <path class="cls-1" d="M166.7,14.4h-1.49c-.17,0-.31-.04-.42-.13-.11-.09-.19-.2-.24-.33l-1.33-3.44h-6.39l-1.33,3.44c-.05.12-.13.23-.24.32-.11.09-.25.14-.42.14h-1.49L159.04.16h1.96l5.69,14.24ZM157.36,9.11h5.32l-2.24-5.79c-.15-.36-.29-.8-.43-1.34-.07.27-.14.52-.21.75-.07.23-.14.43-.2.6l-2.24,5.78Z"/>
  <path class="cls-1" d="M174.59,8.46v5.94h-1.92V.16h4.02c.9,0,1.68.09,2.33.27s1.2.45,1.62.79c.43.34.74.76.95,1.25.21.49.31,1.03.31,1.63,0,.5-.08.97-.24,1.41-.16.44-.39.83-.69,1.18-.3.35-.67.64-1.1.89-.43.25-.93.43-1.48.56.24.14.45.34.64.61l4.15,5.65h-1.71c-.35,0-.61-.14-.77-.41l-3.7-5.09c-.11-.16-.23-.27-.37-.34-.13-.07-.33-.1-.6-.1h-1.46ZM174.59,7.06h2.02c.56,0,1.06-.07,1.48-.2.43-.14.79-.33,1.07-.58s.51-.55.65-.89.22-.72.22-1.14c0-.85-.28-1.49-.84-1.92-.56-.43-1.39-.65-2.5-.65h-2.11v5.38Z"/>
  <path class="cls-1" d="M198.43.16v1.62h-4.6v12.62h-1.93V1.78h-4.62V.16h11.15Z"/>
</svg>