<?xml version="1.0" encoding="UTF-8"?>
<svg id="Layer_1" data-name="Layer 1" xmlns="http://www.w3.org/2000/svg" viewBox="0 0 198.43 58.83">
  <defs>
    <style>
      .cls-1 {
        fill: #fff;
        stroke-width: 0px;
      }
    </style>
  </defs>
  <path id="Path_37247" data-name="Path 37247" class="cls-1" d="M46.6,2.01c.09,6.61-.16,13.21-.76,19.79l-4.36-.3c.37-4.29.55-9.41.55-15.37H9.49V2.01h37.12ZM0,30.11v-4.06h23.12v-12.17h4.54v12.17h26.93v4.06H0ZM9.06,57.21v-21.17h36.48v4.05H13.6v13.06h33.24v4.06H9.06ZM79.82,35.16v-4.06h24.98v-6.8c-5.29-.26-9.33-1.43-12.14-3.5-2.64-1.75-4.22-4.72-4.21-7.88-.03-3.49,1.86-6.72,4.91-8.4,3.27-2.06,7.86-3.1,13.76-3.1s10.48,1.03,13.75,3.1c3.06,1.69,4.94,4.91,4.91,8.4.01,3.17-1.57,6.13-4.21,7.88-2.81,2.06-6.85,3.23-12.14,3.5v6.79h24.98v4.06h-54.6ZM107.11,5.31c-4.41,0-7.84.68-10.28,2.03-2.21.99-3.64,3.18-3.66,5.6.03,2.4,1.46,4.56,3.64,5.54,2.43,1.35,5.86,2.03,10.29,2.03s7.86-.68,10.29-2.03c2.19-.98,3.61-3.14,3.64-5.54-.02-2.42-1.45-4.61-3.66-5.6-2.44-1.35-5.86-2.03-10.28-2.03h0ZM88.75,56.85v-16.5h4.54v12.44h33.37v4.06h-37.91ZM188.06,27.3v31.54h-4.54V0h4.54v23.18h10.37v4.12h-10.37ZM177.87,41.29c-3.33.41-6.74.65-10.22.73-3.48.08-10.53.12-21.14.12V5.18h27.48v4.06h-22.9v28.86c14.7,0,23.5-.24,26.41-.73l.36,3.93Z"/>
</svg>