<?xml version="1.0" encoding="UTF-8"?>
<svg id="Layer_1" data-name="Layer 1" xmlns="http://www.w3.org/2000/svg" viewBox="0 0 198.43 19.37" fill="var(--text-color)">
  <defs>
    <style>
      .cls-1 {
        fill: #fff;
        stroke-width: 0px;
      }
    </style>
  </defs>
  <path class="cls-1" d="M16.71,10.92c-.14-2.68-.31-5.9-.29-8.3h-.09c-.66,2.25-1.45,4.65-2.42,7.3l-3.39,9.33h-1.88l-3.11-9.15c-.91-2.71-1.68-5.19-2.22-7.47h-.06c-.06,2.39-.2,5.62-.37,8.5l-.51,8.24H0L1.34.14h3.17l3.28,9.3c.8,2.37,1.45,4.48,1.94,6.47h.08c.49-1.94,1.17-4.05,2.03-6.47L15.26.14h3.17l1.2,19.22h-2.42l-.48-8.44Z"/>
  <path class="cls-1" d="M31.96,13.32l-2,6.05h-2.57L33.93.14h2.99l6.56,19.22h-2.65l-2.05-6.05h-6.82ZM38.27,11.38l-1.88-5.53c-.43-1.25-.71-2.39-1-3.51h-.06c-.29,1.14-.6,2.31-.97,3.48l-1.88,5.56h5.79Z"/>
  <path class="cls-1" d="M52.01.14h2.48v17.14h8.21v2.08h-10.69V.14Z"/>
  <path class="cls-1" d="M74.28,13.32l-2,6.05h-2.57L76.25.14h2.99l6.56,19.22h-2.65l-2.05-6.05h-6.82ZM80.58,11.38l-1.88-5.53c-.43-1.25-.71-2.39-1-3.51h-.06c-.29,1.14-.6,2.31-.97,3.48l-1.88,5.56h5.79Z"/>
  <path class="cls-1" d="M94.32.37c1.2-.2,2.77-.37,4.76-.37,2.45,0,4.25.57,5.39,1.6,1.05.91,1.68,2.31,1.68,4.02s-.51,3.11-1.48,4.11c-1.31,1.4-3.45,2.11-5.87,2.11-.74,0-1.43-.03-2-.17v7.7h-2.48V.37ZM96.8,9.64c.54.14,1.23.2,2.05.2,2.99,0,4.82-1.45,4.82-4.11s-1.8-3.76-4.53-3.76c-1.08,0-1.91.08-2.34.2v7.47Z"/>
  <path class="cls-1" d="M117.67.14v19.22h-2.48V.14h2.48Z"/>
  <path class="cls-1" d="M131.36,2.25h-5.85V.14h14.23v2.11h-5.87v17.11h-2.51V2.25Z"/>
  <path class="cls-1" d="M159.33,19.37V.14h2.71l6.16,9.72c1.43,2.25,2.54,4.28,3.45,6.25l.06-.03c-.23-2.57-.29-4.9-.29-7.9V.14h2.34v19.22h-2.51l-6.1-9.75c-1.34-2.14-2.62-4.33-3.59-6.42l-.09.03c.14,2.42.2,4.73.2,7.93v8.21h-2.34Z"/>
  <path class="cls-1" d="M186.9,13.32l-2,6.05h-2.57L188.87.14h2.99l6.56,19.22h-2.65l-2.05-6.05h-6.82ZM193.21,11.38l-1.88-5.53c-.43-1.25-.71-2.39-1-3.51h-.06c-.29,1.14-.6,2.31-.97,3.48l-1.88,5.56h5.79Z"/>
</svg>