<?xml version="1.0" encoding="UTF-8"?>
<svg id="Layer_1" data-name="Layer 1" xmlns="http://www.w3.org/2000/svg" viewBox="0 0 198.43 13.62" fill="var(--text-color)">
  <defs>
    <style>
      .cls-1 {
        fill: #fff;
        stroke-width: 0px;
      }
    </style>
  </defs>
  <path class="cls-1" d="M1.79,8.48v4.98H0V.15h3.93c.84,0,1.58.1,2.2.29s1.14.47,1.55.83c.41.36.71.79.92,1.3.2.51.3,1.07.3,1.7s-.11,1.19-.32,1.7c-.22.51-.53.96-.95,1.33-.42.37-.94.66-1.56.87-.62.21-1.33.31-2.13.31H1.79ZM1.79,7.05h2.14c.51,0,.97-.07,1.36-.2s.72-.33.99-.57c.27-.24.47-.54.6-.88.14-.34.2-.72.2-1.12,0-.85-.26-1.51-.79-1.99-.52-.48-1.32-.72-2.37-.72H1.79v5.48Z"/>
  <path class="cls-1" d="M16.87,7.91v5.56h-1.79V.15h3.76c.84,0,1.57.09,2.18.26.61.17,1.12.42,1.52.74.4.32.7.71.89,1.17.19.46.29.96.29,1.53,0,.47-.07.91-.22,1.32-.15.41-.36.78-.65,1.1-.28.32-.63.6-1.03.83-.41.23-.87.4-1.38.52.22.13.42.32.59.57l3.88,5.29h-1.6c-.33,0-.57-.13-.73-.38l-3.46-4.76c-.11-.15-.22-.26-.34-.32s-.31-.1-.56-.1h-1.37ZM16.87,6.6h1.89c.53,0,.99-.06,1.39-.19s.73-.31,1-.54.47-.51.61-.83.2-.68.2-1.07c0-.79-.26-1.39-.79-1.79-.52-.4-1.3-.6-2.34-.6h-1.97v5.03Z"/>
  <path class="cls-1" d="M42.52,6.81c0,1-.16,1.91-.47,2.75s-.76,1.55-1.34,2.15-1.27,1.07-2.08,1.4c-.81.33-1.7.5-2.68.5s-1.87-.17-2.68-.5-1.5-.8-2.07-1.4-1.02-1.32-1.34-2.15c-.32-.83-.47-1.75-.47-2.75s.16-1.91.47-2.75c.32-.83.76-1.55,1.34-2.16.58-.6,1.27-1.07,2.07-1.41.81-.33,1.7-.5,2.68-.5s1.87.17,2.68.5c.81.33,1.5.8,2.08,1.41.58.6,1.02,1.32,1.34,2.16s.47,1.75.47,2.75ZM40.67,6.81c0-.82-.11-1.55-.33-2.2-.22-.65-.54-1.2-.95-1.65s-.9-.8-1.49-1.04c-.58-.24-1.23-.36-1.95-.36s-1.36.12-1.94.36c-.58.24-1.08.59-1.49,1.04s-.73,1-.95,1.65c-.22.65-.33,1.38-.33,2.2s.11,1.55.33,2.2c.22.65.54,1.2.95,1.64.41.45.91.79,1.49,1.03.58.24,1.23.36,1.94.36s1.37-.12,1.95-.36c.58-.24,1.08-.58,1.49-1.03.41-.45.72-1,.95-1.64.22-.65.33-1.38.33-2.2Z"/>
  <path class="cls-1" d="M55.52,2.23c-.06.09-.11.16-.18.21-.06.05-.14.07-.24.07-.11,0-.23-.05-.37-.16s-.32-.22-.53-.35-.47-.24-.77-.35-.66-.16-1.09-.16c-.4,0-.76.05-1.07.16-.31.11-.57.26-.78.44-.21.19-.36.4-.47.66-.11.25-.16.52-.16.81,0,.37.09.68.27.92.18.25.42.45.73.63.3.17.64.32,1.02.45.38.13.77.26,1.17.39.4.14.79.29,1.17.46.38.17.72.39,1.02.65s.54.58.73.96c.18.38.27.84.27,1.39,0,.58-.1,1.13-.3,1.64s-.49.96-.87,1.33c-.38.38-.85.68-1.4.89-.55.22-1.18.33-1.89.33-.86,0-1.65-.16-2.36-.47-.71-.31-1.32-.74-1.82-1.27l.52-.85c.05-.07.11-.13.18-.17.07-.05.15-.07.24-.07.13,0,.28.07.45.21.17.14.38.29.63.46s.55.32.91.46c.36.14.79.21,1.31.21.43,0,.81-.06,1.14-.18.33-.12.62-.28.85-.5.23-.21.41-.47.53-.77s.19-.63.19-.99c0-.4-.09-.73-.27-.99s-.42-.47-.72-.65-.64-.32-1.02-.44c-.38-.12-.77-.25-1.17-.37s-.79-.27-1.17-.44c-.38-.17-.72-.38-1.02-.65-.3-.27-.54-.6-.72-1-.18-.4-.27-.89-.27-1.48,0-.47.09-.93.27-1.37.18-.44.45-.83.79-1.17.35-.34.78-.61,1.29-.82.51-.2,1.1-.31,1.76-.31.74,0,1.42.12,2.04.35.61.24,1.15.58,1.61,1.02l-.44.85Z"/>
  <path class="cls-1" d="M69.09,2.23c-.06.09-.11.16-.18.21-.06.05-.14.07-.24.07-.11,0-.23-.05-.37-.16s-.32-.22-.53-.35-.47-.24-.77-.35-.66-.16-1.09-.16c-.4,0-.76.05-1.07.16-.31.11-.57.26-.78.44-.21.19-.36.4-.47.66-.11.25-.16.52-.16.81,0,.37.09.68.27.92.18.25.42.45.73.63.3.17.64.32,1.02.45.38.13.77.26,1.17.39.4.14.79.29,1.17.46.38.17.72.39,1.02.65s.54.58.73.96c.18.38.27.84.27,1.39,0,.58-.1,1.13-.3,1.64s-.49.96-.87,1.33c-.38.38-.85.68-1.4.89-.55.22-1.18.33-1.89.33-.86,0-1.65-.16-2.36-.47-.71-.31-1.32-.74-1.82-1.27l.52-.85c.05-.07.11-.13.18-.17.07-.05.15-.07.24-.07.13,0,.28.07.45.21.17.14.38.29.63.46s.55.32.91.46c.36.14.79.21,1.31.21.43,0,.81-.06,1.14-.18.33-.12.62-.28.85-.5.23-.21.41-.47.53-.77s.19-.63.19-.99c0-.4-.09-.73-.27-.99s-.42-.47-.72-.65-.64-.32-1.02-.44c-.38-.12-.77-.25-1.17-.37s-.79-.27-1.17-.44c-.38-.17-.72-.38-1.02-.65-.3-.27-.54-.6-.72-1-.18-.4-.27-.89-.27-1.48,0-.47.09-.93.27-1.37.18-.44.45-.83.79-1.17.35-.34.78-.61,1.29-.82.51-.2,1.1-.31,1.76-.31.74,0,1.42.12,2.04.35.61.24,1.15.58,1.61,1.02l-.44.85Z"/>
  <path class="cls-1" d="M77.97,13.47h-1.8V.15h1.8v13.32Z"/>
  <path class="cls-1" d="M92.04,9.12c.06.16.13.33.19.5.06-.17.13-.34.2-.5.07-.16.15-.32.23-.48L97.16.46c.08-.14.16-.23.25-.26.09-.03.21-.05.37-.05h1.33v13.32h-1.58V3.68c0-.13,0-.27,0-.42,0-.15.02-.3.03-.45l-4.56,8.33c-.16.28-.37.42-.65.42h-.26c-.28,0-.5-.14-.65-.42l-4.67-8.36c.02.16.03.32.04.47,0,.16.01.3.01.43v9.79h-1.58V.15h1.33c.16,0,.28.02.37.05.09.03.17.12.25.26l4.6,8.2c.09.15.16.3.23.47Z"/>
  <path class="cls-1" d="M117.03,13.47h-1.39c-.16,0-.29-.04-.39-.12-.1-.08-.17-.18-.22-.31l-1.25-3.22h-5.98l-1.25,3.22c-.04.11-.12.21-.22.3-.11.09-.24.13-.39.13h-1.39L109.88.15h1.83l5.33,13.32ZM108.31,8.52h4.97l-2.09-5.42c-.14-.33-.27-.75-.4-1.25-.07.25-.13.49-.2.7-.06.21-.13.4-.19.56l-2.09,5.41Z"/>
  <path class="cls-1" d="M129.21,9.12c.07.16.13.33.19.5.06-.17.13-.34.2-.5s.15-.32.23-.48l4.51-8.19c.08-.14.16-.23.25-.26.09-.03.21-.05.37-.05h1.33v13.32h-1.58V3.68c0-.13,0-.27,0-.42,0-.15.02-.3.03-.45l-4.56,8.33c-.16.28-.37.42-.65.42h-.26c-.28,0-.5-.14-.65-.42l-4.67-8.36c.02.16.03.32.04.47,0,.16.01.3.01.43v9.79h-1.58V.15h1.33c.16,0,.28.02.37.05.09.03.17.12.25.26l4.6,8.2c.09.15.16.3.23.47Z"/>
  <path class="cls-1" d="M151.46.15v1.47h-6.39v4.42h5.18v1.41h-5.18v4.54h6.39v1.47h-8.21V.15h8.21Z"/>
  <path class="cls-1" d="M159.05.21c.08.04.17.12.27.25l7.71,10.04c-.02-.16-.03-.32-.04-.47s0-.3,0-.44V.15h1.58v13.32h-.91c-.14,0-.26-.02-.36-.07-.1-.05-.19-.13-.28-.25l-7.7-10.03c.01.15.02.31.03.45,0,.15,0,.28,0,.41v9.49h-1.58V.15h.93c.16,0,.28.02.36.06Z"/>
  <path class="cls-1" d="M184.61.15v1.51h-4.3v11.8h-1.8V1.66h-4.32V.15h10.43Z"/>
  <path class="cls-1" d="M198.43.15v1.47h-6.39v4.42h5.18v1.41h-5.18v4.54h6.39v1.47h-8.21V.15h8.21Z"/>
</svg>