<?xml version="1.0" encoding="UTF-8"?>
<svg id="Layer_1" data-name="Layer 1" xmlns="http://www.w3.org/2000/svg" viewBox="0 0 198.43 17.75" fill="var(--text-color)">
  <defs>
    <style>
      .cls-1 {
        fill: #fff;
        stroke-width: 0px;
      }
    </style>
  </defs>
  <path class="cls-1" d="M1.91,12.31v5.3H0V3.45h4.18c.9,0,1.67.1,2.34.31s1.21.5,1.64.88c.43.38.76.84.97,1.38.21.54.32,1.14.32,1.81s-.12,1.26-.35,1.81c-.23.55-.57,1.02-1.01,1.41-.44.39-1,.7-1.65.92-.66.22-1.41.33-2.26.33H1.91ZM1.91,10.79h2.27c.55,0,1.03-.07,1.45-.22s.77-.35,1.05-.61c.28-.26.5-.57.64-.93.14-.36.22-.76.22-1.2,0-.9-.28-1.61-.83-2.11-.56-.51-1.4-.76-2.52-.76H1.91v5.83Z"/>
  <path class="cls-1" d="M17.93,11.7v5.91h-1.91V3.45h4c.9,0,1.67.09,2.32.27.65.18,1.19.44,1.62.79.42.34.74.76.94,1.24.2.48.31,1.03.31,1.62,0,.5-.08.97-.24,1.4-.16.44-.39.82-.69,1.17-.3.35-.67.64-1.1.88-.43.24-.92.43-1.47.55.24.14.45.34.63.6l4.13,5.62h-1.7c-.35,0-.61-.14-.77-.41l-3.67-5.06c-.11-.16-.23-.27-.37-.34s-.33-.1-.59-.1h-1.45ZM17.93,10.3h2.01c.56,0,1.05-.07,1.48-.2s.78-.33,1.07-.57.5-.54.65-.88.22-.72.22-1.14c0-.84-.28-1.48-.83-1.91-.56-.43-1.38-.64-2.48-.64h-2.09v5.34Z"/>
  <path class="cls-1" d="M45.19,10.53c0,1.06-.17,2.03-.5,2.92s-.81,1.65-1.42,2.29-1.35,1.13-2.21,1.49c-.86.35-1.81.53-2.85.53s-1.99-.18-2.84-.53-1.59-.85-2.2-1.49-1.09-1.4-1.42-2.29c-.34-.89-.5-1.86-.5-2.92s.17-2.03.5-2.92c.34-.89.81-1.65,1.42-2.29.61-.64,1.35-1.14,2.2-1.5.86-.36,1.8-.53,2.84-.53s1.99.18,2.85.53c.86.36,1.6.85,2.21,1.5.61.64,1.09,1.41,1.42,2.29s.5,1.86.5,2.92ZM43.23,10.53c0-.87-.12-1.65-.36-2.34-.24-.69-.57-1.28-1.01-1.75s-.96-.85-1.58-1.1c-.62-.26-1.31-.38-2.07-.38s-1.45.13-2.06.38c-.62.26-1.15.62-1.59,1.1s-.78,1.06-1.01,1.75c-.24.69-.36,1.47-.36,2.34s.12,1.65.36,2.34c.24.69.57,1.27,1.01,1.75.44.48.97.84,1.59,1.1.62.25,1.31.38,2.06.38s1.46-.13,2.07-.38c.62-.25,1.15-.62,1.58-1.1.43-.48.77-1.06,1.01-1.75.24-.69.36-1.47.36-2.34ZM41.6,0l-2.9,2.13c-.11.08-.21.13-.3.16s-.2.04-.34.04h-1.36l2.08-2.01c.07-.07.13-.12.18-.16s.11-.07.17-.1.12-.04.2-.05c.07-.01.16-.02.28-.02h1.99Z"/>
  <path class="cls-1" d="M54.76,10.33l-4.67-6.88h1.91c.14,0,.24.02.31.07.07.05.12.11.18.2l3.69,5.67c.05-.14.12-.29.21-.45l3.49-5.18c.06-.09.12-.17.19-.22s.15-.08.25-.08h1.83l-4.69,6.8,4.85,7.36h-1.9c-.14,0-.26-.04-.34-.11-.08-.08-.15-.16-.2-.25l-3.79-5.94c-.05.14-.11.27-.18.39l-3.69,5.54c-.06.09-.13.18-.2.25-.08.08-.18.11-.32.11h-1.78l4.87-7.27Z"/>
  <path class="cls-1" d="M70.39,17.6h-1.92V3.45h1.92v14.16Z"/>
  <path class="cls-1" d="M85.34,12.99c.07.17.14.35.2.53.07-.18.13-.36.21-.53.07-.17.15-.34.25-.51l4.79-8.7c.09-.15.17-.24.27-.28.09-.03.22-.05.4-.05h1.41v14.16h-1.68V7.2c0-.14,0-.29,0-.44,0-.16.02-.32.03-.48l-4.85,8.85c-.16.3-.4.44-.69.44h-.28c-.3,0-.53-.15-.69-.44l-4.96-8.88c.02.17.03.34.04.5.01.16.01.32.01.45v10.4h-1.68V3.45h1.41c.17,0,.3.02.4.05.09.03.18.13.27.28l4.89,8.71c.09.16.17.32.24.5Z"/>
  <path class="cls-1" d="M111.91,17.6h-1.48c-.17,0-.31-.04-.41-.13-.11-.09-.19-.19-.24-.33l-1.32-3.42h-6.35l-1.32,3.42c-.05.12-.12.22-.24.32-.11.09-.25.14-.41.14h-1.48l5.66-14.16h1.95l5.66,14.16ZM102.63,12.35h5.29l-2.22-5.76c-.14-.36-.29-.8-.43-1.33-.07.27-.14.52-.21.75-.07.23-.14.43-.2.6l-2.22,5.75Z"/>
  <path class="cls-1" d="M124.86,12.99c.07.17.14.35.2.53.07-.18.14-.36.21-.53s.15-.34.25-.51l4.79-8.7c.09-.15.17-.24.27-.28.09-.03.22-.05.39-.05h1.41v14.16h-1.68V7.2c0-.14,0-.29,0-.44,0-.16.02-.32.03-.48l-4.85,8.85c-.16.3-.4.44-.69.44h-.28c-.3,0-.53-.15-.69-.44l-4.96-8.88c.02.17.03.34.04.5,0,.16.02.32.02.45v10.4h-1.68V3.45h1.41c.17,0,.3.02.4.05.09.03.18.13.27.28l4.89,8.71c.09.16.17.32.24.5Z"/>
  <path class="cls-1" d="M148.5,3.45v1.56h-6.8v4.7h5.5v1.5h-5.5v4.83h6.8v1.56h-8.72V3.45h8.72Z"/>
  <path class="cls-1" d="M156.58,3.51c.08.04.18.13.28.26l8.2,10.67c-.02-.17-.03-.34-.04-.5s0-.32,0-.47V3.45h1.68v14.16h-.97c-.15,0-.28-.03-.38-.08-.1-.05-.2-.14-.3-.27l-8.19-10.66c.01.16.02.33.03.48,0,.16.01.3.01.44v10.09h-1.68V3.45h.99c.17,0,.3.02.38.06Z"/>
  <path class="cls-1" d="M183.74,3.45v1.61h-4.57v12.55h-1.92V5.06h-4.59v-1.61h11.08Z"/>
  <path class="cls-1" d="M198.43,3.45v1.56h-6.8v4.7h5.5v1.5h-5.5v4.83h6.8v1.56h-8.72V3.45h8.72Z"/>
</svg>