<?xml version="1.0" encoding="UTF-8"?>
<svg id="Layer_1" data-name="Layer 1" xmlns="http://www.w3.org/2000/svg" viewBox="0 0 198.43 23.27" fill="var(--text-color)">
  <defs>
    <style>
      .cls-1 {
        fill: #fff;
        stroke-width: 0px;
      }
    </style>
  </defs>
  <path class="cls-1" d="M0,4.47c1.17-.19,2.69-.36,4.64-.36,2.39,0,4.14.56,5.25,1.56,1.03.89,1.64,2.25,1.64,3.92s-.5,3.03-1.44,4c-1.28,1.36-3.36,2.06-5.72,2.06-.72,0-1.39-.03-1.94-.17v7.5H0V4.47ZM2.42,13.5c.53.14,1.19.19,2,.19,2.92,0,4.69-1.42,4.69-4s-1.75-3.66-4.42-3.66c-1.05,0-1.86.08-2.28.19v7.28Z"/>
  <path class="cls-1" d="M20.33,4.5c1.22-.25,2.97-.39,4.64-.39,2.58,0,4.25.47,5.42,1.53.94.83,1.47,2.11,1.47,3.55,0,2.47-1.56,4.11-3.53,4.78v.08c1.44.5,2.3,1.83,2.75,3.78.61,2.61,1.05,4.42,1.44,5.14h-2.5c-.31-.53-.72-2.14-1.25-4.47-.56-2.58-1.56-3.55-3.75-3.64h-2.28v8.11h-2.42V4.5ZM24.69,3.17l-2.89-3.17h2.03l1.78,1.94h.06l1.75-1.94h2l-2.86,3.17h-1.86ZM22.74,13.03h2.47c2.58,0,4.22-1.42,4.22-3.55,0-2.42-1.75-3.47-4.3-3.5-1.17,0-2,.11-2.39.22v6.83Z"/>
  <path class="cls-1" d="M43.23,4.25v18.72h-2.42V4.25h2.42Z"/>
  <path class="cls-1" d="M56.84,4.25h2.42v12.53c0,4.97-2.44,6.5-5.67,6.5-.89,0-1.97-.19-2.58-.44l.36-1.97c.5.2,1.22.36,2.03.36,2.17,0,3.44-.97,3.44-4.64V4.25Z"/>
  <path class="cls-1" d="M68.83,4.5c1.47-.22,3.22-.39,5.14-.39,3.47,0,5.94.81,7.58,2.33,1.67,1.53,2.64,3.69,2.64,6.72s-.94,5.55-2.69,7.28c-1.75,1.75-4.64,2.69-8.28,2.69-1.72,0-3.17-.08-4.39-.22V4.5ZM71.25,21.05c.61.11,1.5.14,2.44.14,5.17,0,7.97-2.89,7.97-7.94.03-4.42-2.47-7.22-7.58-7.22-1.25,0-2.19.11-2.83.25v14.78Z"/>
  <path class="cls-1" d="M102.57,14.19h-7.28v6.75h8.11v2.03h-10.53V4.25h10.11v2.03h-7.69v5.92h7.28v2Z"/>
  <path class="cls-1" d="M123.54,4.5c1.05-.22,2.72-.39,4.42-.39,2.42,0,3.97.42,5.14,1.36.97.72,1.56,1.83,1.56,3.3,0,1.81-1.19,3.39-3.17,4.11v.06c1.78.44,3.86,1.92,3.86,4.69,0,1.61-.64,2.83-1.58,3.75-1.3,1.19-3.42,1.75-6.47,1.75-1.67,0-2.94-.11-3.75-.22V4.5ZM125.95,12.17h2.19c2.56,0,4.06-1.33,4.06-3.14,0-2.19-1.67-3.05-4.11-3.05-1.11,0-1.75.08-2.14.17v6.03ZM125.95,21.14c.47.08,1.17.11,2.03.11,2.5,0,4.8-.92,4.8-3.64,0-2.56-2.19-3.61-4.83-3.61h-2v7.14Z"/>
  <path class="cls-1" d="M144.14,4.5c1.22-.25,2.97-.39,4.64-.39,2.58,0,4.25.47,5.42,1.53.94.83,1.47,2.11,1.47,3.55,0,2.47-1.56,4.11-3.53,4.78v.08c1.44.5,2.3,1.83,2.75,3.78.61,2.61,1.05,4.42,1.44,5.14h-2.5c-.31-.53-.72-2.14-1.25-4.47-.56-2.58-1.56-3.55-3.75-3.64h-2.28v8.11h-2.42V4.5ZM146.55,13.03h2.47c2.58,0,4.22-1.42,4.22-3.55,0-2.42-1.75-3.47-4.3-3.5-1.17,0-2,.11-2.39.22v6.83Z"/>
  <path class="cls-1" d="M163.35,21.55l10.39-15.19v-.08h-9.5v-2.03h12.64v1.47l-10.33,15.14v.08h10.47v2.03h-13.66v-1.42Z"/>
  <path class="cls-1" d="M189.7,22.97v-7.94l-5.92-10.77h2.75l2.64,5.17c.72,1.42,1.28,2.55,1.86,3.86h.05c.53-1.22,1.17-2.44,1.89-3.86l2.69-5.17h2.75l-6.28,10.75v7.97h-2.44Z"/>
</svg>