<?xml version="1.0" encoding="UTF-8"?>
<svg id="Layer_1" data-name="Layer 1" xmlns="http://www.w3.org/2000/svg" viewBox="0 0 198.43 107.48" fill="var(--text-color)">
  <defs>
    <style>
      .cls-1 {
        fill: #fff;
        stroke-width: 0px;
      }
    </style>
  </defs>
  <path id="Path_37247" data-name="Path 37247" class="cls-1" d="M14.41,82.72c.03,1.92-.72,3.77-2.08,5.12-1.31,1.39-3.16,2.17-5.07,2.13-2.07.06-4.06-.8-5.44-2.35C.61,86.29-.04,84.53,0,82.72v-36.08h3.84v29.78c1.04-.58,2.22-.88,3.42-.85,1.9-.04,3.74.72,5.07,2.08,1.36,1.33,2.12,3.17,2.08,5.07ZM10.89,82.77c.01-.98-.37-1.92-1.07-2.6-.67-.7-1.59-1.09-2.56-1.08-.97-.01-1.9.38-2.56,1.08-.7.68-1.08,1.62-1.07,2.6-.01.98.37,1.92,1.07,2.6.67.7,1.59,1.09,2.56,1.08.97.01,1.9-.38,2.56-1.08.7-.68,1.08-1.62,1.07-2.6ZM40.46,83.15c.03,1.84-.66,3.62-1.92,4.96-1.32,1.41-3.19,2.17-5.12,2.08-1.87.02-3.67-.74-4.96-2.1-1.35-1.31-2.1-3.12-2.08-5-.02-1.88.73-3.69,2.08-5,1.29-1.36,3.09-2.12,4.96-2.1,1.12-.02,2.22.24,3.2.77v-11.12c0-2.92-6.87-5.48-20.6-7.69.43-7.54,3.88-11.31,10.35-11.31,2.16.11,4.29.49,6.35,1.12,1.92.6,3.91.98,5.92,1.12.71,0,1.39-.82,2.03-2.45l3.31.85c-1.07,3.42-2.88,5.12-5.44,5.12-2.19-.11-4.36-.49-6.46-1.12-2.07-.62-4.2-1-6.35-1.12-1.36.04-2.65.62-3.58,1.62-.98.84-1.61,2.01-1.76,3.29,4.58.79,9.07,1.97,13.45,3.52,4.41,1.57,6.62,3.81,6.62,6.72v17.83ZM37.04,83.1c.01-.95-.37-1.86-1.05-2.52-.66-.68-1.57-1.06-2.52-1.05-.95-.01-1.86.37-2.52,1.05-.68.66-1.06,1.57-1.05,2.52-.01.95.37,1.86,1.05,2.52.66.68,1.57,1.06,2.52,1.05.95.01,1.86-.37,2.52-1.05.68-.66,1.06-1.57,1.05-2.52ZM41.95,34.8c.04,1.46-.56,2.87-1.65,3.84-1.02.97-2.38,1.5-3.79,1.49-3.83-.35-7.43-1.97-10.25-4.59-2.28.93-4.19,2.58-5.44,4.7-2.85-1.78-4.49-4.98-4.27-8.33,0-5.55,3.04-8.33,9.12-8.33h7.08c3.5,0,5.36-2.56,5.58-7.69h3.52c.09,2.73-.73,5.41-2.35,7.61-1.67,2.09-4.26,3.24-6.94,3.07h-7.36c-2.43-.39-4.72,1.28-5.1,3.71-.07.42-.07.84-.02,1.26-.03,1.49.38,2.95,1.17,4.21,1.36-1.74,3.29-2.95,5.44-3.42,1.65,1.4,3.4,2.68,5.23,3.84-.06-.46-.1-.92-.11-1.39-.03-1.34.49-2.63,1.44-3.58.94-.95,2.24-1.47,3.58-1.44,1.36-.02,2.68.52,3.63,1.49.96.92,1.5,2.19,1.49,3.52ZM39.17,34.8c0-.62-.24-1.22-.69-1.65-.43-.45-1.03-.7-1.65-.69-.62,0-1.22.24-1.65.69-.45.43-.7,1.03-.69,1.65,0,.62.24,1.22.69,1.65.43.45,1.03.7,1.65.69.62,0,1.22-.24,1.65-.69.45-.43.7-1.03.69-1.65ZM77.49,83.15c.02,1.87-.73,3.67-2.08,4.96-1.3,1.35-3.09,2.1-4.96,2.08-1.87.02-3.67-.74-4.96-2.1-1.35-1.31-2.1-3.12-2.08-5-.02-1.88.73-3.69,2.08-5,1.29-1.36,3.09-2.12,4.96-2.1,1.12-.02,2.22.24,3.2.77v-17.17c0-6.29-3.52-9.43-10.57-9.43-5.61,0-9.09,2.56-10.46,7.69h-3.84c1.57-7.47,6.4-11.21,14.52-11.21,3.65-.13,7.23,1,10.14,3.2,2.73,2.19,4.24,5.57,4.06,9.07v24.23ZM74.08,83.1c.01-.95-.37-1.86-1.05-2.52-.66-.68-1.57-1.06-2.52-1.05-.95-.01-1.86.37-2.52,1.05-.68.66-1.06,1.57-1.05,2.52-.01.95.37,1.86,1.05,2.52.66.68,1.57,1.06,2.52,1.05.95.01,1.86-.37,2.52-1.05.68-.66,1.06-1.57,1.05-2.52ZM119.01,107.48h-3.84v-50.26c.07-3.51-1.82-6.77-4.91-8.45l-5.02,3.95-5.87-3.95c-3.08,1.39-5.08,4.44-5.12,7.83.98-.7,2.14-1.09,3.34-1.1,1.78-.04,3.5.66,4.75,1.94,1.27,1.24,1.98,2.96,1.94,4.73.04,1.76-.66,3.46-1.94,4.68-1.26,1.24-2.97,1.92-4.73,1.88-2.09.06-4.09-.85-5.43-2.45-1.56-2.13-2.34-4.73-2.2-7.36-.69-6.38,3.52-12.26,9.78-13.66l5.21,3.52,4.89-3.52c6.1,2.35,9.15,6.37,9.15,12.06v50.17ZM100.76,62.17c.03-.85-.3-1.66-.91-2.25-.61-.6-1.44-.92-2.29-.89-.84-.03-1.65.29-2.24.89-.57.61-.88,1.42-.85,2.25-.03.82.28,1.62.85,2.2.6.57,1.41.88,2.24.84.85.03,1.67-.27,2.29-.84.61-.57.94-1.37.91-2.2ZM190.21,83.26c.03,1.86-.73,3.64-2.1,4.91-1.33,1.32-3.13,2.05-5,2.03-1.86.03-3.65-.7-4.95-2.03-1.33-1.28-2.07-3.06-2.04-4.91v-.75c-3.91,1.44-7.42,3.78-10.25,6.83h-4.7v-29.38c-.98.53-2.09.79-3.2.77-1.87.02-3.67-.73-4.96-2.08-1.35-1.3-2.1-3.09-2.08-4.96-.02-1.87.73-3.67,2.08-4.96,1.3-1.35,3.09-2.1,4.96-2.08,1.87-.02,3.67.73,4.96,2.08,1.35,1.3,2.1,3.09,2.08,4.96v31.49c2.2-2.07,4.77-3.7,7.58-4.8,2.78-1.14,5.43-2.57,7.9-4.27,2.32-1.73,3.67-4.47,3.63-7.36v-21.24h3.84v21.77c.24,2.7-.6,5.39-2.35,7.47,2.83.88,4.71,3.55,4.59,6.51ZM161.6,53.69c.01-.94-.37-1.84-1.05-2.49-.66-.68-1.58-1.05-2.52-1.04-.95-.01-1.86.36-2.52,1.04-.68.65-1.06,1.55-1.05,2.49-.01.94.37,1.84,1.05,2.49.66.68,1.58,1.05,2.52,1.04.95.01,1.86-.36,2.52-1.04.68-.65,1.06-1.55,1.05-2.49ZM186.68,83.04c.01-.96-.37-1.89-1.07-2.56-.67-.69-1.6-1.08-2.56-1.07-.96-.01-1.89.37-2.56,1.07-.69.67-1.08,1.6-1.07,2.56-.01.96.37,1.89,1.07,2.56.67.69,1.6,1.08,2.56,1.07.96.01,1.89-.37,2.56-1.07.69-.67,1.08-1.6,1.07-2.56ZM188.61,40.77c-7.38-2.77-15.18-4.25-23.06-4.38-2.82.02-5.64.23-8.43.64,0-3.53,1.71-6.84,4.59-8.89,2.8-2.08,6.22-3.16,9.71-3.07,4.97-.31,9.8,1.75,13.02,5.55v-10.35h3.52v17.61c.29.94.5,1.91.64,2.88ZM184.44,36.72c-3.13-5.76-7.44-8.65-12.92-8.65-4.98,0-8.33,1.89-10.03,5.66,1.66-.22,3.34-.33,5.02-.32,6.14-.13,12.24.99,17.93,3.31ZM198.43,1.17c-1,6.12-3.63,10.42-7.9,12.92-4.39,2.21-9.28,3.24-14.2,2.99h-1.92v-1.99c2.08-.76,3.85-2.2,5.02-4.09-1.41,0-2.76-.56-3.74-1.58-1.05-1.01-1.63-2.41-1.6-3.86-.02-1.47.56-2.89,1.6-3.92,1-1.06,2.39-1.65,3.84-1.63,1.37-.02,2.68.52,3.63,1.5,1.03,1.08,1.64,2.49,1.71,3.98.01,3.57-1.8,6.89-4.8,8.82,8.47-.71,13.27-5.09,14.41-13.13h3.95ZM181.88,5.55c.02-.67-.23-1.32-.69-1.81-.45-.49-1.09-.77-1.76-.75-.68-.01-1.34.26-1.81.75-.49.48-.76,1.13-.75,1.81-.02.67.25,1.31.75,1.76.49.46,1.14.71,1.81.69.66.02,1.29-.23,1.76-.69.46-.47.72-1.1.69-1.76Z"/>
</svg>