<?xml version="1.0" encoding="UTF-8"?>
<svg id="Layer_1" data-name="Layer 1" xmlns="http://www.w3.org/2000/svg" viewBox="0 0 198.43 53.74" fill="var(--text-color)">
  <defs>
    <style>
      .cls-1 {
        fill: #fff;
        stroke-width: 0px;
      }
    </style>
  </defs>
  <path id="Path_37247" data-name="Path 37247" class="cls-1" d="M33.95,53.7H4.31c-1.2.1-2.41-.02-3.58-.36C.28,53.11,0,52.64,0,52.13c.02-1.37.26-2.72.71-4.01.29-1.42.77-2.79,1.44-4.08,1.19-1.61,2.56-3.07,4.08-4.36,7.37-5.73,16.75-8.59,28.15-8.59h5.98v4.41h-6.14c-11.51,0-21.24,3.08-29.19,9.23-1.98,1.79-2.97,3.07-2.97,3.83,0,.49.79.74,2.38.74h35.91v.23l-6.42,4.18ZM53.05,35.5h-14.45v-4.41h12.6c.07-1.55-.17-3.11-.71-4.56-.63-1.16-1.43-2.22-2.38-3.15l1.97-4.13c.94,1.08,1.71,2.29,2.29,3.6.55,2.11.78,4.29.68,6.47v6.18ZM49.42,47.57c.02.61-.23,1.19-.68,1.6-.45.42-1.04.65-1.65.63-.95,0-1.83-.54-2.26-1.39-.46-.83-.7-1.76-.68-2.71.04-2.54,1.38-4.87,3.55-6.19l.56.89c-1.59,1.46-2.38,2.66-2.38,3.61,0,.47.59.9,1.78,1.28,1.07.23,1.82,1.2,1.78,2.3ZM79.4,35.5h-3.55c-1.1.03-2.13-.5-2.76-1.4-.72-1.09-1.19-2.33-1.38-3.63-.36-1.96-.6-3.94-.73-5.93-.1-1.91-.21-3.87-.32-5.88-.06-1.53-.21-3.06-.43-4.58-.13-.88-.38-1.73-.73-2.55-.37-.81-.89-1.53-1.55-2.13l3.12-4.92c.73,2.37,1.2,4.81,1.41,7.29.17,1.76.34,5.92.51,12.48.3,3.01.74,4.94,1.32,5.78.3.6.88,1,1.55,1.06h3.55v4.41ZM92.07,35.5h-14.45v-4.41h12.6c.07-1.55-.17-3.11-.71-4.56-.63-1.16-1.43-2.22-2.38-3.14l1.97-4.13c.94,1.08,1.71,2.29,2.29,3.6.55,2.11.78,4.29.68,6.47v6.19ZM88.45,47.57c.02.61-.23,1.19-.68,1.6-.44.42-1.03.64-1.64.63-.95,0-1.83-.54-2.26-1.39-.46-.83-.7-1.76-.68-2.71.04-2.54,1.38-4.87,3.54-6.19l.56.89c-1.59,1.45-2.38,2.65-2.38,3.6,0,.47.59.9,1.78,1.28,1.07.23,1.82,1.2,1.78,2.3ZM117.46,35.5c-.11,2.14-.95,4.18-2.38,5.78-1.44,1.81-3.19,3.34-5.17,4.54-1.42,1.03-3.1,1.66-4.84,1.83-1.28-.01-2.54-.18-3.78-.51-1.26-.33-2.49-.72-3.7-1.19-1.22-.46-2.43-.91-3.63-1.37l.43-1.01c1.12.22,2.28.44,3.49.67,1.08.22,2.18.33,3.28.34,2.4-.07,4.74-.79,6.77-2.08,2.1-1.24,3.95-2.87,5.45-4.8,1.31-1.45,2.1-3.29,2.26-5.24-.04-1.48-.44-2.92-1.17-4.21-.72-1.32-1.61-2.55-2.64-3.65l1.45-3.98c1.24,1.1,2.28,2.4,3.07,3.85.76,1.51,1.14,3.18,1.12,4.87v6.16ZM126.03,29.03c0,1.34-.25,2.68-.74,3.93-.47,1.11-1.02,2.19-1.65,3.22l-.46-.25c.05-.49.1-1.06.14-1.7.04-.64.06-1.07.06-1.29,0-1.76-.14-4.21-.42-7.37-.28-3.15-.61-6.44-1-9.88-.24-2.08-.5-4.2-.79-6.36.34-.74.72-1.55,1.15-2.41.43-.86.84-1.67,1.23-2.43.27,1.93.61,4.56,1.03,7.91.41,3.35.74,6.36.98,9.05.3,3.35.45,5.87.45,7.58ZM127.98.33c-.47.82-1.13,1.51-1.94,2-.85.45-1.81.67-2.78.63-.27,0-.54-.02-.81-.05-.27-.03-.55-.08-.84-.13-.58-.15-1.18-.23-1.78-.25-.31,0-.61.07-.89.21-.25.14-.48.27-.68.41l-.33-.28c.25-.56.61-1.07,1.04-1.51.32-.36.77-.57,1.25-.6.23,0,.45.03.67.06.31.04.77.11,1.36.19.36.05.69.09,1.01.13.3.03.61.05.91.05.63,0,1.26-.12,1.85-.36.57-.22,1.11-.5,1.62-.84l.33.33ZM160.16,35.5h-11.36c-.93,0-1.84-.28-2.6-.84-.69-.42-1.12-1.16-1.15-1.97,0-.58.03-1.17.1-1.75.08-.58.21-1.16.38-1.72h.58c.13.61.49,1.15,1.01,1.5.51.28,1.09.41,1.67.38h9.81c.1-2.5-.33-4.99-1.27-7.3-.98-2.24-2.9-3.92-5.25-4.59l.38-4.92c2.89,1.39,5.11,3.86,6.21,6.87,1.08,3.2,1.58,6.57,1.47,9.94v4.41ZM170.91,35.5h-12.53v-4.41h9.97l-3.02-21.5-1.32-.63c0-1.1.1-2.2.3-3.28.2-1.02.51-2.02.91-2.98l.38.28c.02,1.01.68,1.9,1.65,2.21.85.34,1.7.68,2.56,1.01,0,.91-.08,1.81-.21,2.71-.08.73-.24,1.46-.48,2.16l-1.22-.41,2.99,19.88v4.97ZM198.43,35.5h-29.29v-4.41h20.67c-1.72-1.34-3.18-2.37-4.36-3.12-1.26-.83-2.62-1.51-4.03-2.03-1.34-.47-2.74-.71-4.15-.71-.87,0-1.75.06-2.61.18.41-1.13,1.07-2.16,1.93-3.02,1.18-1.11,2.75-1.7,4.36-1.65,1.72,0,3.76.85,6.11,2.54,1.17.85,3.07,2.45,5.71,4.82,2.05,1.84,3.43,2.84,4.15,2.99h1.52v4.41ZM185.57,40.98l-1.97,3.68-4.11-2.13,1.88-3.7,4.21,2.16Z"/>
</svg>