<?xml version="1.0" encoding="UTF-8"?>
<svg id="Layer_1" data-name="Layer 1" xmlns="http://www.w3.org/2000/svg" viewBox="0 0 198.43 29.64" fill="var(--text-color)">
  <defs>
    <style>
      .cls-1 {
        fill: #fff;
        stroke-width: 0px;
      }
    </style>
  </defs>
  <path class="cls-1" d="M0,5.75h2.65c.29,0,.52.07.71.21.19.14.31.33.38.54l4.88,16.42c.09.3.17.62.24.96.07.34.14.7.21,1.07.08-.37.15-.73.23-1.08.08-.35.17-.66.26-.95L15.12,6.51c.07-.19.19-.36.39-.52s.43-.24.7-.24h.92c.29,0,.52.07.7.21.18.14.31.33.39.54l5.52,16.42c.2.57.37,1.23.53,1.96.07-.36.13-.71.18-1.04.05-.33.13-.64.21-.92l4.9-16.42c.06-.2.18-.37.37-.53.19-.15.43-.23.7-.23h2.49l-7.37,23.63h-2.87l-5.98-18.02c-.12-.34-.23-.74-.33-1.19-.05.22-.11.43-.16.64-.05.2-.1.39-.16.55l-6.02,18.02h-2.87L0,5.75Z"/>
  <path class="cls-1" d="M46.35,16.11h1.2c.42,0,.75-.05,1-.16.25-.1.48-.28.7-.54l7.86-8.9c.24-.27.48-.47.7-.58.22-.12.51-.17.87-.17h2.72l-9,10.17c-.23.25-.45.47-.65.64-.2.18-.42.32-.65.43.31.1.58.25.81.44.23.2.47.45.73.74l9.4,11.19h-2.77c-.21,0-.38-.02-.53-.05-.14-.03-.27-.08-.37-.13-.1-.05-.2-.13-.29-.21-.09-.09-.18-.18-.26-.28l-8.16-9.38c-.12-.13-.23-.24-.34-.34s-.23-.17-.36-.24-.3-.11-.48-.14c-.18-.03-.4-.04-.67-.04h-1.45v10.81h-3.18V5.75h3.18v10.35Z"/>
  <path class="cls-1" d="M75.4,19.52v9.86h-3.18V5.75h6.68c1.49,0,2.79.15,3.87.45,1.09.3,1.99.74,2.7,1.31.71.57,1.23,1.26,1.57,2.07.34.81.51,1.71.51,2.71,0,.84-.13,1.62-.4,2.34-.26.73-.65,1.38-1.15,1.95-.5.58-1.11,1.07-1.83,1.47-.72.41-1.54.71-2.45.92.4.23.75.57,1.06,1l6.89,9.38h-2.84c-.58,0-1.01-.23-1.29-.68l-6.13-8.44c-.19-.26-.39-.45-.61-.57s-.55-.17-.99-.17h-2.42ZM75.4,17.2h3.35c.93,0,1.76-.11,2.47-.34s1.3-.54,1.78-.96.84-.9,1.08-1.48.36-1.2.36-1.9c0-1.41-.46-2.47-1.39-3.18-.93-.71-2.31-1.07-4.15-1.07h-3.5v8.92Z"/>
  <path class="cls-1" d="M120.9,17.58c0,1.77-.28,3.39-.84,4.87s-1.35,2.75-2.37,3.82-2.25,1.89-3.68,2.48c-1.43.59-3.02.88-4.76.88s-3.32-.29-4.75-.88-2.65-1.42-3.68-2.48-1.81-2.34-2.37-3.82c-.56-1.48-.84-3.1-.84-4.87s.28-3.39.84-4.87c.56-1.48,1.35-2.75,2.37-3.82,1.02-1.07,2.25-1.9,3.68-2.5,1.43-.59,3.01-.89,4.75-.89s3.32.3,4.76.89c1.43.59,2.66,1.43,3.68,2.5,1.02,1.07,1.81,2.35,2.37,3.82s.84,3.1.84,4.87ZM117.62,17.58c0-1.45-.2-2.75-.59-3.91-.4-1.15-.96-2.13-1.68-2.93s-1.61-1.41-2.64-1.84c-1.03-.43-2.19-.64-3.46-.64s-2.41.21-3.45.64c-1.03.43-1.92,1.04-2.65,1.84s-1.29,1.77-1.69,2.93c-.4,1.15-.59,2.46-.59,3.91s.2,2.75.59,3.9c.4,1.15.96,2.12,1.69,2.92.73.8,1.61,1.41,2.65,1.83,1.03.42,2.18.63,3.45.63s2.43-.21,3.46-.63c1.03-.42,1.91-1.03,2.64-1.83.73-.8,1.29-1.77,1.68-2.92.4-1.15.59-2.45.59-3.9ZM114.9,0l-4.85,3.56c-.19.13-.35.22-.5.26s-.33.07-.56.07h-2.28l3.48-3.35c.11-.11.21-.2.31-.26s.19-.12.29-.16.21-.07.33-.09c.12-.02.27-.03.46-.03h3.31Z"/>
  <path class="cls-1" d="M146.34,5.75v2.69h-7.63v20.94h-3.2V8.44h-7.67v-2.69h18.5Z"/>
  <path class="cls-1" d="M171.34,24.5c.18,0,.34.07.48.21l1.25,1.37c-.97,1.12-2.14,1.99-3.52,2.62-1.38.63-3.04.94-4.99.94-1.7,0-3.25-.29-4.63-.88s-2.57-1.41-3.54-2.47-1.74-2.33-2.28-3.82c-.54-1.48-.81-3.12-.81-4.9s.29-3.41.87-4.9c.58-1.48,1.39-2.76,2.43-3.83s2.29-1.89,3.75-2.48,3.06-.88,4.82-.88,3.23.27,4.49.81c1.26.54,2.38,1.27,3.35,2.19l-1.04,1.47c-.08.11-.17.2-.26.27-.1.07-.24.11-.43.11-.14,0-.29-.05-.45-.16-.16-.1-.35-.23-.57-.39s-.48-.32-.77-.49c-.3-.18-.65-.34-1.06-.5-.41-.15-.88-.28-1.42-.39-.54-.1-1.16-.16-1.86-.16-1.26,0-2.42.22-3.47.65s-1.95,1.05-2.71,1.85-1.35,1.78-1.77,2.94c-.42,1.15-.64,2.45-.64,3.87s.21,2.79.64,3.94c.42,1.15,1,2.13,1.73,2.93s1.6,1.4,2.6,1.82c1,.42,2.08.63,3.23.63.7,0,1.34-.04,1.9-.12s1.08-.21,1.56-.39c.48-.18.92-.4,1.34-.67.41-.27.83-.59,1.24-.96.19-.17.37-.25.54-.25Z"/>
  <path class="cls-1" d="M198.43,5.75v2.61h-11.34v7.85h9.18v2.51h-9.18v8.06h11.34v2.61h-14.56V5.75h14.56Z"/>
</svg>