<?xml version="1.0" encoding="UTF-8"?>
<svg id="Layer_1" data-name="Layer 1" xmlns="http://www.w3.org/2000/svg" viewBox="0 0 198.43 13.14">
  <defs>
    <style>
      .cls-1 {
        fill: #fff;
        stroke-width: 0px;
      }
    </style>
  </defs>
  <path class="cls-1" d="M4.03,12.95v-5.41L0,.21h1.87l1.8,3.52c.49.96.87,1.74,1.27,2.63h.04c.36-.83.79-1.66,1.29-2.63L8.09.21h1.87l-4.27,7.31v5.42h-1.66Z"/>
  <path class="cls-1" d="M15.72,8.94l-1.32,4.01h-1.7L17.03.21h1.98l4.35,12.74h-1.76l-1.36-4.01h-4.52ZM19.9,7.66l-1.25-3.67c-.28-.83-.47-1.59-.66-2.32h-.04c-.19.76-.4,1.53-.64,2.31l-1.25,3.69h3.84Z"/>
  <path class="cls-1" d="M29.01.21h1.64v6.14h.06c.34-.49.68-.94,1-1.36L35.6.21h2.04l-4.61,5.41,4.97,7.33h-1.95l-4.2-6.26-1.21,1.4v4.86h-1.64V.21Z"/>
  <path class="cls-1" d="M44.67.21v12.74h-1.64V.21h1.64Z"/>
  <path class="cls-1" d="M51.33,12.95V.21h1.8l4.08,6.45c.94,1.49,1.68,2.83,2.29,4.14l.04-.02c-.15-1.7-.19-3.25-.19-5.24V.21h1.55v12.74h-1.66l-4.05-6.46c-.89-1.42-1.74-2.87-2.38-4.25l-.06.02c.09,1.61.13,3.14.13,5.25v5.44h-1.55Z"/>
  <path class="cls-1" d="M67.54.38c1-.15,2.19-.26,3.5-.26,2.36,0,4.04.55,5.16,1.59,1.13,1.04,1.8,2.51,1.8,4.57s-.64,3.78-1.83,4.95c-1.19,1.19-3.16,1.83-5.63,1.83-1.17,0-2.16-.06-2.99-.15V.38ZM69.18,11.64c.42.08,1.02.09,1.66.09,3.52,0,5.42-1.97,5.42-5.41.02-3.01-1.68-4.91-5.16-4.91-.85,0-1.49.07-1.93.17v10.06Z"/>
  <path class="cls-1" d="M85.7,8.94l-1.32,4.01h-1.7L87.01.21h1.98l4.35,12.74h-1.76l-1.36-4.01h-4.52ZM89.88,7.66l-1.25-3.67c-.28-.83-.47-1.59-.66-2.32h-.04c-.19.76-.4,1.53-.64,2.31l-1.25,3.69h3.84Z"/>
  <path class="cls-1" d="M116.47,12.38c-.74.26-2.19.7-3.91.7-1.93,0-3.52-.49-4.76-1.68-1.1-1.06-1.78-2.76-1.78-4.74.02-3.8,2.63-6.58,6.9-6.58,1.47,0,2.63.32,3.18.59l-.4,1.34c-.68-.3-1.53-.55-2.82-.55-3.1,0-5.12,1.93-5.12,5.12s1.95,5.14,4.91,5.14c1.08,0,1.81-.15,2.19-.34v-3.8h-2.59v-1.32h4.2v6.12Z"/>
  <path class="cls-1" d="M129.36,6.97h-4.95v4.59h5.52v1.38h-7.16V.21h6.88v1.38h-5.24v4.03h4.95v1.36Z"/>
  <path class="cls-1" d="M135.84.21h1.64v11.36h5.44v1.38h-7.09V.21Z"/>
  <path class="cls-1" d="M155.13,6.97h-4.95v4.59h5.52v1.38h-7.16V.21h6.88v1.38h-5.24v4.03h4.95v1.36Z"/>
  <path class="cls-1" d="M170.51,12.53c-.61.3-1.82.61-3.36.61-3.59,0-6.29-2.27-6.29-6.45s2.7-6.69,6.65-6.69c1.59,0,2.59.34,3.02.57l-.4,1.34c-.62-.3-1.51-.53-2.57-.53-2.99,0-4.97,1.91-4.97,5.25,0,3.12,1.8,5.12,4.9,5.12,1,0,2.02-.21,2.68-.53l.34,1.3Z"/>
  <path class="cls-1" d="M182.95,6.97h-4.95v4.59h5.52v1.38h-7.16V.21h6.88v1.38h-5.24v4.03h4.95v1.36Z"/>
  <path class="cls-1" d="M189.43.21h1.64v6.14h.06c.34-.49.68-.94,1-1.36l3.89-4.78h2.04l-4.61,5.41,4.97,7.33h-1.95l-4.2-6.26-1.21,1.4v4.86h-1.64V.21Z"/>
</svg>