<?xml version="1.0" encoding="UTF-8"?>
<svg id="Layer_1" data-name="Layer 1" xmlns="http://www.w3.org/2000/svg" viewBox="0 0 198.43 35.23">
  <defs>
    <style>
      .cls-1 {
        fill: #fff;
        stroke-width: 0px;
      }
    </style>
  </defs>
  <path class="cls-1" d="M26.55,35.23h-2.97c-.34,0-.62-.08-.83-.26-.21-.17-.37-.39-.47-.65l-2.65-6.84H6.92l-2.65,6.84c-.09.24-.25.45-.47.63-.22.18-.5.28-.83.28H0L11.33,6.9h3.89l11.33,28.33ZM10.08,0c.42,0,.74.04.95.13.21.08.45.26.71.52l4.17,4.01h-2.75c-.28,0-.49-.02-.65-.07-.16-.05-.35-.15-.57-.31L6.11,0h3.97ZM7.99,24.71h10.58l-4.45-11.53c-.29-.71-.57-1.6-.85-2.67-.15.54-.29,1.04-.42,1.49-.14.46-.27.85-.41,1.2l-4.45,11.5Z"/>
  <path class="cls-1" d="M50.29,6.9h3.06c.34,0,.62.09.83.26.21.17.37.39.47.65l8.01,19.99c.18.45.35.94.5,1.46.15.53.3,1.07.44,1.64.12-.57.25-1.11.39-1.64.14-.53.3-1.02.48-1.46l7.97-19.99c.09-.22.25-.43.47-.62s.5-.29.83-.29h3.08l-11.55,28.33h-3.46l-11.55-28.33Z"/>
  <path class="cls-1" d="M105.83,6.9v3.12h-13.6v9.41h11.01v3.01h-11.01v9.67h13.6v3.12h-17.46V6.9h17.46Z"/>
  <path class="cls-1" d="M121.99,7.03c.17.08.35.26.56.52l16.41,21.35c-.04-.34-.07-.68-.08-1s-.02-.64-.02-.94V6.9h3.36v28.33h-1.94c-.3,0-.56-.05-.76-.16-.2-.1-.41-.28-.6-.53l-16.39-21.33c.03.33.05.65.06.97.01.32.02.61.02.87v20.18h-3.36V6.9h1.98c.34,0,.6.04.76.13Z"/>
  <path class="cls-1" d="M161.59,35.23h-3.83V6.9h3.83v28.33Z"/>
  <path class="cls-1" d="M181.31,23.41v11.82h-3.82V6.9h8.01c1.79,0,3.34.18,4.65.54s2.38.89,3.23,1.57,1.48,1.51,1.89,2.48.61,2.05.61,3.25c0,1-.16,1.94-.47,2.81-.32.87-.77,1.65-1.37,2.34-.6.69-1.33,1.28-2.2,1.77-.86.49-1.84.86-2.93,1.11.47.28.9.68,1.26,1.2l8.26,11.25h-3.4c-.7,0-1.21-.27-1.54-.81l-7.35-10.12c-.22-.32-.47-.54-.73-.68-.26-.14-.66-.21-1.19-.21h-2.91ZM181.31,20.62h4.01c1.12,0,2.11-.14,2.96-.41.85-.27,1.56-.65,2.14-1.15s1.01-1.09,1.3-1.77.43-1.44.43-2.27c0-1.69-.56-2.96-1.67-3.82-1.11-.86-2.77-1.28-4.97-1.28h-4.19v10.7Z"/>
</svg>