<?xml version="1.0" encoding="UTF-8"?>
<svg id="Layer_1" data-name="Layer 1" xmlns="http://www.w3.org/2000/svg" viewBox="0 0 223.18 16.52">
  <defs>
    <style>
      .cls-1 {
        fill: #fff;
        stroke-width: 0px;
      }
    </style>
  </defs>
  <path class="cls-1" d="M12.32,9.42c0,4.64-2.82,7.1-6.26,7.1S0,13.76,0,9.68C0,5.4,2.66,2.6,6.26,2.6s6.06,2.82,6.06,6.82ZM1.86,9.64c0,2.88,1.56,5.46,4.3,5.46s4.32-2.54,4.32-5.6c0-2.68-1.4-5.48-4.3-5.48S1.86,6.68,1.86,9.64Z"/>
  <path class="cls-1" d="M20.08,2.82v4.28c0,1.84.96,2.88,2.86,2.88.94,0,1.96-.32,2.66-.76V2.82h1.76v13.48h-1.76v-5.72h-.04c-.94.54-2.06.84-3.24.84-1.78,0-3.98-.76-3.98-4.06V2.82h1.74Z"/>
  <path class="cls-1" d="M36.56,12.06l-1.4,4.24h-1.8l4.58-13.48h2.1l4.6,13.48h-1.86l-1.44-4.24h-4.78ZM40.98,10.7l-1.32-3.88c-.3-.88-.5-1.68-.7-2.46h-.04c-.2.8-.42,1.62-.68,2.44l-1.32,3.9h4.06Z"/>
  <path class="cls-1" d="M52.34,2.82v5.98h.54l4.62-5.98h2.1l-5.1,6.18c2.22.3,3.08,1.66,3.78,3.48.5,1.38.88,2.62,1.48,3.82h-1.88c-.48-.92-.86-2.12-1.22-3.18-.62-1.78-1.48-3-3.76-3h-.56v6.18h-1.72V2.82h1.72Z"/>
  <path class="cls-1" d="M65.46,3c.76-.16,1.96-.28,3.18-.28,1.74,0,2.86.3,3.7.98.7.52,1.12,1.32,1.12,2.38,0,1.3-.86,2.44-2.28,2.96v.04c1.28.32,2.78,1.38,2.78,3.38,0,1.16-.46,2.04-1.14,2.7-.94.86-2.46,1.26-4.66,1.26-1.2,0-2.12-.08-2.7-.16V3ZM67.2,8.52h1.58c1.84,0,2.92-.96,2.92-2.26,0-1.58-1.2-2.2-2.96-2.2-.8,0-1.26.06-1.54.12v4.34ZM67.2,14.98c.34.06.84.08,1.46.08,1.8,0,3.46-.66,3.46-2.62,0-1.84-1.58-2.6-3.48-2.6h-1.44v5.14Z"/>
  <path class="cls-1" d="M82.48,12.06l-1.4,4.24h-1.8l4.58-13.48h2.1l4.6,13.48h-1.86l-1.44-4.24h-4.78ZM86.9,10.7l-1.32-3.88c-.3-.88-.5-1.68-.7-2.46h-.04c-.2.8-.42,1.62-.68,2.44l-1.32,3.9h4.06Z"/>
  <path class="cls-1" d="M98.18,2.82v5.68c0,2.14-.04,3.9-.16,5.7l.04.02c.68-1.4,1.52-2.86,2.5-4.46l4.36-6.94h1.74v13.48h-1.64v-5.74c0-2.18.02-3.78.16-5.48l-.06-.02c-.66,1.48-1.58,3.04-2.5,4.54l-4.22,6.7h-1.86V2.82h1.64ZM100.38,0c.08.62.28,1.24,1.22,1.24s1.14-.58,1.22-1.24h1.34c-.1,1.32-.9,2.14-2.6,2.14s-2.42-.82-2.52-2.14h1.34Z"/>
  <path class="cls-1" d="M116.26,4.3h-4.1v-1.48h9.98v1.48h-4.12v12h-1.76V4.3Z"/>
  <path class="cls-1" d="M134.62,9.98h-5.24v4.86h5.84v1.46h-7.58V2.82h7.28v1.46h-5.54v4.26h5.24v1.44Z"/>
  <path class="cls-1" d="M158.76,15.86c-.64.32-1.92.64-3.56.64-3.8,0-6.66-2.4-6.66-6.82s2.86-7.08,7.04-7.08c1.68,0,2.74.36,3.2.6l-.42,1.42c-.66-.32-1.6-.56-2.72-.56-3.16,0-5.26,2.02-5.26,5.56,0,3.3,1.9,5.42,5.18,5.42,1.06,0,2.14-.22,2.84-.56l.36,1.38Z"/>
  <path class="cls-1" d="M166.66,2.82v5.98h.54l4.62-5.98h2.1l-5.1,6.18c2.22.3,3.08,1.66,3.78,3.48.5,1.38.88,2.62,1.48,3.82h-1.88c-.48-.92-.86-2.12-1.22-3.18-.62-1.78-1.48-3-3.76-3h-.56v6.18h-1.72V2.82h1.72Z"/>
  <path class="cls-1" d="M190.92,9.42c0,4.64-2.82,7.1-6.26,7.1s-6.06-2.76-6.06-6.84c0-4.28,2.66-7.08,6.26-7.08s6.06,2.82,6.06,6.82ZM180.46,9.64c0,2.88,1.56,5.46,4.3,5.46s4.32-2.54,4.32-5.6c0-2.68-1.4-5.48-4.3-5.48s-4.32,2.66-4.32,5.62Z"/>
  <path class="cls-1" d="M197.18,2.98c.84-.14,1.94-.26,3.34-.26,1.72,0,2.98.4,3.78,1.12.74.64,1.18,1.62,1.18,2.82s-.36,2.18-1.04,2.88c-.92.98-2.42,1.48-4.12,1.48-.52,0-1-.02-1.4-.12v5.4h-1.74V2.98ZM198.92,9.48c.38.1.86.14,1.44.14,2.1,0,3.38-1.02,3.38-2.88s-1.26-2.64-3.18-2.64c-.76,0-1.34.06-1.64.14v5.24Z"/>
  <path class="cls-1" d="M223.18,9.42c0,4.64-2.82,7.1-6.26,7.1s-6.06-2.76-6.06-6.84c0-4.28,2.66-7.08,6.26-7.08s6.06,2.82,6.06,6.82ZM212.72,9.64c0,2.88,1.56,5.46,4.3,5.46s4.32-2.54,4.32-5.6c0-2.68-1.4-5.48-4.3-5.48s-4.32,2.66-4.32,5.62Z"/>
</svg>