<?xml version="1.0" encoding="UTF-8"?>
<svg id="Layer_1" data-name="Layer 1" xmlns="http://www.w3.org/2000/svg" viewBox="0 0 156.12 16.94" fill="var(--text-color)">
  <defs>
    <style>
      .cls-1 {
        fill: #fff;
        stroke-width: 0px;
      }
    </style>
  </defs>
  <path class="cls-1" d="M10.22,13.26c-.64.32-1.92.64-3.56.64-3.8,0-6.66-2.4-6.66-6.82S2.86,0,7.04,0c1.68,0,2.74.36,3.2.6l-.42,1.42c-.66-.32-1.6-.56-2.72-.56C3.94,1.46,1.84,3.48,1.84,7.02c0,3.3,1.9,5.42,5.18,5.42,1.06,0,2.14-.22,2.84-.56l.36,1.38Z"/>
  <path class="cls-1" d="M18.12.22v5.98h.54L23.28.22h2.1l-5.1,6.18c2.22.3,3.08,1.66,3.78,3.48.5,1.38.88,2.62,1.48,3.82h-1.88c-.48-.92-.86-2.12-1.22-3.18-.62-1.78-1.48-3-3.76-3h-.56v6.18h-1.72V.22h1.72Z"/>
  <path class="cls-1" d="M42.38,6.82c0,4.64-2.82,7.1-6.26,7.1s-6.06-2.76-6.06-6.84c0-4.28,2.66-7.08,6.26-7.08s6.06,2.82,6.06,6.82ZM31.92,7.04c0,2.88,1.56,5.46,4.3,5.46s4.32-2.54,4.32-5.6c0-2.68-1.4-5.48-4.3-5.48s-4.32,2.66-4.32,5.62Z"/>
  <path class="cls-1" d="M48.64.38c.84-.14,1.94-.26,3.34-.26,1.72,0,2.98.4,3.78,1.12.74.64,1.18,1.62,1.18,2.82s-.36,2.18-1.04,2.88c-.92.98-2.42,1.48-4.12,1.48-.52,0-1-.02-1.4-.12v5.4h-1.74V.38ZM50.38,6.88c.38.1.86.14,1.44.14,2.1,0,3.38-1.02,3.38-2.88s-1.26-2.64-3.18-2.64c-.76,0-1.34.06-1.64.14v5.24Z"/>
  <path class="cls-1" d="M74.64,6.82c0,4.64-2.82,7.1-6.26,7.1s-6.06-2.76-6.06-6.84c0-4.28,2.66-7.08,6.26-7.08s6.06,2.82,6.06,6.82ZM64.18,7.04c0,2.88,1.56,5.46,4.3,5.46s4.32-2.54,4.32-5.6c0-2.68-1.4-5.48-4.3-5.48s-4.32,2.66-4.32,5.62Z"/>
  <path class="cls-1" d="M96.7.22v1.46h-5.82v3.62c.42-.06,1.22-.1,1.66-.1,1.28,0,2.54.28,3.48.9,1.02.66,1.72,1.72,1.72,3.3,0,1.26-.42,2.22-1.12,2.92-1.1,1.08-2.92,1.5-4.76,1.5-1.22,0-2.14-.08-2.72-.16V.22h7.56ZM90.88,12.36c.4.08.86.1,1.46.1,1.08,0,2.18-.34,2.84-1.04.46-.48.74-1.14.74-1.98,0-1.04-.44-1.74-1.1-2.2-.7-.48-1.6-.68-2.56-.68-.4,0-.94.04-1.38.08v5.72Z"/>
  <path class="cls-1" d="M104.22.22l2.68,5.74c.34.8.66,1.58.98,2.38h.04c.24-.7.5-1.48.84-2.44l2.1-5.68h1.84l-2.82,6.92c-.74,1.8-1.58,3.86-2.52,5.12-.88,1.1-1.86,1.66-3.06,1.66-.44,0-.76-.04-.98-.12l.18-1.42c.14.04.34.06.64.06,1.4-.02,2.22-1.36,2.64-2.32.14-.3.1-.5-.06-.82L102.24.22h1.98Z"/>
  <path class="cls-1" d="M126.36.22v12.06l1.18.04-.12,4.62h-1.36l-.12-3.24h-8.5l-.12,3.24h-1.36l-.12-4.62,1.02-.04c.5-.92,1-1.9,1.32-2.96.46-1.56.64-3.36.64-5.68V.22h7.54ZM120.44,4.2c0,2.16-.2,3.98-.68,5.5-.28.94-.7,1.84-1.1,2.56h5.96V1.66h-4.18v2.54Z"/>
  <path class="cls-1" d="M140.72,7.38h-5.24v4.86h5.84v1.46h-7.58V.22h7.28v1.46h-5.54v4.26h5.24v1.44Z"/>
  <path class="cls-1" d="M150.24,1.7h-4.1V.22h9.98v1.48h-4.12v12h-1.76V1.7Z"/>
</svg>