<?xml version="1.0" encoding="UTF-8"?>
<svg id="Layer_1" data-name="Layer 1" xmlns="http://www.w3.org/2000/svg" viewBox="0 0 198.43 46.82">
  <defs>
    <style>
      .cls-1 {
        fill: #fff;
        stroke-width: 0px;
      }
    </style>
  </defs>
  <path id="Path_37247" data-name="Path 37247" class="cls-1" d="M23.23,40.8c.04.09.07.18.08.28,0,.17-.19.35-.58.56l-1.42.61c-.18.13-.39.22-.61.28-.1,0-.19-.11-.25-.33-.86-1.99-1.55-3.5-2.08-4.51-4.64,1.81-9.36,3.37-14.16,4.68-.65.17-1.28.41-1.88.73-.22.16-.47.28-.73.35-.2,0-.39-.18-.56-.53-.44-.97-.78-1.98-1.04-3.02,1.38-.18,2.75-.42,4.1-.73V11.99l-.1-8.49c0-.29.15-.43.46-.43l5.7.1h5.88l5.27-.1c.21-.03.4.12.43.32,0,.04,0,.07,0,.11l-.1,5.47v10.29l.1,5.5c0,.27-.14.41-.43.41l-5.27-.1H7.12v13.41c3.36-.85,6.66-1.92,9.88-3.22-.88-1.6-1.84-3.15-2.89-4.64-.06-.07-.09-.16-.1-.25,0-.12.17-.27.51-.46l1.29-.63c.15-.09.31-.15.48-.18.14.03.27.11.35.23,2.62,3.57,4.83,7.42,6.59,11.48ZM18.67,22.43v-7.12H7.12v7.12h11.55ZM18.67,12.73v-6.92H7.12v6.92h11.55ZM43.78,31.83c.12,1.53-.24,3.05-1.04,4.36-.53.67-1.27,1.14-2.1,1.34-1.27.26-2.56.37-3.85.33-.35,0-.79,0-1.29-.02-.32.04-.64,0-.93-.13-.15-.27-.24-.56-.28-.86-.15-.86-.46-1.69-.91-2.43,1.44.17,2.89.25,4.33.25.84.11,1.68-.16,2.31-.73.45-.73.64-1.58.56-2.43V6.19h-10.72v30.79l.1,9.17c0,.24-.14.35-.43.35h-2.49c-.27,0-.41-.12-.41-.35l.1-9.81V13.51l-.1-9.91c0-.29.14-.43.41-.43l5.35.1h5.7l5.27-.1c.21-.03.4.12.43.32,0,.04,0,.07,0,.11l-.1,7.78v13.38l.1,7.07ZM65.07.84c-.04.32-.12.64-.25.93-.32,1.76-.43,3.56-.33,5.35v30.1l.1,9.17c0,.29-.14.43-.41.43h-2.51c-.27,0-.41-.14-.41-.43l.1-9.12v-9.65c-1.8,1.26-3.67,2.42-5.6,3.47-.6.29-1.15.68-1.62,1.17-.24.3-.46.46-.66.46-.28-.03-.52-.2-.63-.46-.51-.92-.96-1.88-1.34-2.86,1.01-.33,2-.72,2.96-1.17,2.37-1.17,4.68-2.48,6.89-3.93V7.22c.04-2.38-.08-4.76-.35-7.12,1.15.04,2.29.15,3.42.33.42.05.63.19.63.41ZM98.01,27.9c0,.27-.14.41-.43.41l-6.79-.1v6.69l.05,6.64c.15,1.34-.4,2.67-1.44,3.52-.9.59-2.89.89-5.98.89-.33.04-.67-.02-.96-.18-.16-.28-.28-.59-.33-.91-.19-.83-.53-1.62-.99-2.33,1.09.16,2.19.24,3.29.23.41,0,.91,0,1.52-.02,1.15-.07,1.72-.73,1.72-1.97v-12.55h-12.72l-7.2.1c-.29,0-.43-.14-.43-.41v-2.2c0-.24.14-.35.43-.35l7.2.1h12.72c.04-1.65-.08-3.31-.35-4.94,1.1.05,2.22.14,3.37.28.41.05.61.19.61.41-.02.31-.1.61-.25.89-.23,1.11-.32,2.24-.25,3.37l6.79-.1c.29,0,.43.12.43.35v2.2ZM95.93,3.37c0,.32-.26.48-.79.48-.92.09-1.82.3-2.69.61-7.46,1.85-15.1,2.9-22.78,3.11-.06,0-.12,0-.18.02h-.3c-.22.03-.43-.05-.58-.21-.15-.24-.26-.49-.33-.76-.25-.67-.6-1.29-1.04-1.85,7.41.03,14.79-.83,21.99-2.55,1.36-.3,2.66-.84,3.83-1.6.88.6,1.71,1.26,2.51,1.97.22.2.35.47.35.77h0ZM94.89,9.56c-.04.26-.19.49-.41.63-.45.35-.79.81-.99,1.34-1.2,2.55-2.59,5.01-4.15,7.35-.29.49-.53.73-.73.73-.29-.04-.57-.14-.81-.3-.52-.28-1.09-.46-1.67-.56,1.89-2.61,3.42-5.45,4.55-8.47.3-.8.51-1.63.63-2.48,1.02.24,2.01.6,2.94,1.09.42.21.63.43.63.67h0ZM59.04,16.93c.04.1.07.22.08.33,0,.17-.18.34-.53.51l-1.47.61c-.2.11-.43.19-.66.23-.14,0-.25-.11-.33-.33-.85-2.84-2.1-5.55-3.72-8.03-.07-.08-.11-.18-.13-.28,0-.14.16-.27.48-.41l1.52-.66c.11-.07.23-.11.35-.13.1,0,.2.08.3.23,1.69,2.46,3.07,5.13,4.1,7.93ZM80.58,37.02c.06.07.09.16.1.25,0,.12-.15.29-.46.51l-1.47,1.04c-.17.15-.38.27-.61.33-.07,0-.2-.12-.38-.35-1.33-2.36-3-4.52-4.94-6.41-.11-.08-.18-.2-.21-.33,0-.12.14-.26.43-.43l1.39-.93c.13-.11.29-.19.46-.21.12,0,.24.06.33.15,2.05,1.89,3.85,4.04,5.35,6.39ZM75.18,18.07c.04.1.07.2.08.3,0,.15-.22.31-.66.48l-1.34.46c-.21.09-.43.15-.66.18-.12,0-.21-.11-.28-.33-.78-2.58-1.9-5.04-3.32-7.32-.06-.08-.09-.18-.1-.28,0-.1.19-.23.58-.38l1.29-.43c.16-.06.33-.1.51-.13.15.03.29.11.38.23,1.46,2.26,2.64,4.68,3.53,7.22ZM83.79,17.08c.03.1.04.2.05.3,0,.19-.18.33-.53.43l-1.44.35c-.2.07-.4.11-.61.13-.19,0-.31-.14-.38-.43-.5-2.53-1.3-4.99-2.38-7.32-.05-.1-.09-.21-.1-.33,0-.14.19-.27.56-.41l1.37-.41c.14-.04.28-.07.43-.08.14,0,.27.11.38.33,1.21,2.35,2.11,4.84,2.66,7.42h0ZM149.95,42.72c0,.27-.14.41-.43.41l-6.49-.1h-16.6v3.32c.03.2-.11.38-.3.41-.03,0-.07,0-.1,0h-2.31c-.2.03-.38-.11-.41-.3,0-.03,0-.07,0-.1l.1-5.98V15.51c-.82,1.24-1.7,2.43-2.64,3.57-.34.39-.57.58-.68.58-.14,0-.37-.21-.68-.63-.36-.54-.81-1.02-1.34-1.39,1.93-2.02,3.61-4.26,5.02-6.66,1.18-1.93,2.16-3.96,2.94-6.09.61-1.56,1.04-3.18,1.29-4.84,1.23.27,2.2.52,2.89.73.42.15.63.35.63.61,0,.19-.18.45-.53.79-.05.07-.43.88-1.14,2.43-.76,1.82-1.54,3.51-2.33,5.04h8.77c.98-1.87,1.82-3.81,2.51-5.8.45-1.18.77-2.4.93-3.65.98.21,1.94.47,2.89.79.42.12.63.33.63.63-.04.29-.21.55-.46.71-.48.54-.83,1.18-1.04,1.88-.96,2.33-1.78,4.15-2.46,5.45h3.95l6.33-.1c.2-.03.38.11.41.3,0,.03,0,.07,0,.1v2.08c.03.2-.11.38-.3.41-.03,0-.07,0-.1,0l-6.33-.1h-4.31v7.12h2.81l6.26-.1c.32,0,.48.14.48.41v2.08c0,.27-.16.41-.48.41l-6.26-.1h-2.81v7.3h2.86l6.26-.1c.29,0,.43.14.43.41v2.14c0,.24-.14.35-.43.35l-6.26-.1h-2.86v8.13h4.76l6.49-.1c.29,0,.43.14.43.41v2.16ZM135.36,40.27v-8.13h-8.92v8.13h8.92ZM135.36,29.45v-7.3h-8.92v7.3h8.92ZM135.36,19.46v-7.12h-8.92v7.12h8.92ZM120.33,21.24c-.08.67-.12,1.35-.13,2.03.03.37-.02.74-.15,1.09-.24.23-.52.4-.84.51-1.6.81-3.23,1.54-4.86,2.18v6.29l.05,7.83c0,2.08-.45,3.44-1.34,4.1-.84.59-2.37.89-4.59.89h-.93c-.33.04-.66-.01-.96-.16-.16-.26-.27-.54-.33-.84-.22-.82-.56-1.6-.99-2.33,1.4.15,2.8.22,4.21.21.57.07,1.14-.15,1.52-.58.28-.54.41-1.14.35-1.75v-12.47c-1.66.62-2.9,1.08-3.72,1.37-.66.19-1.28.51-1.82.93-.17.22-.41.36-.68.41-.28,0-.52-.19-.61-.46-.39-1.01-.7-2.05-.93-3.11,1.56-.3,3.1-.7,4.61-1.19.03-.02.57-.19,1.62-.53.61-.19,1.12-.35,1.55-.51v-11.64h-1.93l-5.02.1c-.29,0-.43-.14-.43-.41v-2.18c-.03-.21.12-.4.32-.43.04,0,.07,0,.11,0l5.02.1h1.93v-4.21c.05-2.09-.07-4.19-.35-6.26,1.11.03,2.22.13,3.32.3.42.05.63.19.63.41-.05.35-.17.68-.33.99-.24,1.49-.33,3-.25,4.51v4.26h.21l5.14-.1c.27,0,.41.14.41.43v2.18c.03.2-.11.38-.3.41-.03,0-.07,0-.1,0l-5.14-.1h-.21v10.49c2.43-1.01,4.42-1.93,5.97-2.76ZM198.42,29.27s-.08.33-.25.93c-.29,1.61-.4,3.25-.33,4.89v6.11l.1,4.43c0,.27-.12.41-.35.41h-2.48c-.29,0-.43-.14-.43-.41v-2.86h-31.57v3.02c0,.27-.14.41-.43.41h-2.46c-.2.03-.38-.11-.41-.3,0-.03,0-.07,0-.1l.1-4.26v-6.24c.05-2.15-.07-4.3-.35-6.43,1.16.03,2.32.14,3.47.3.46.07.68.23.68.48-.01.15-.05.29-.1.43-.06.15-.11.3-.15.46-.32,1.53-.44,3.1-.35,4.66v4.61h13.69v-17.64h-12.19v2.58c0,.29-.14.43-.41.43h-2.45c-.27,0-.41-.14-.41-.43l.1-4.61v-7.07c.04-2.17-.07-4.34-.35-6.49,1.16.04,2.32.15,3.47.33.37.05.56.2.56.46-.02.32-.09.64-.21.93-.28,1.55-.39,3.14-.3,4.71v6.23h12.19V6.64c.05-2.22-.07-4.44-.35-6.64,1.2.04,2.39.15,3.57.33.42.05.63.19.63.41-.01.15-.05.29-.1.43-.07.16-.12.33-.15.51-.29,1.62-.4,3.27-.33,4.92v12.67h13.18v-6.48c.04-2.17-.07-4.34-.35-6.49,1.16.04,2.32.14,3.47.3.41.07.61.23.61.48-.06.3-.15.6-.25.89-.26,1.62-.36,3.27-.3,4.92v7.02l.1,4.76c0,.29-.14.43-.41.43h-2.46c-.27,0-.41-.14-.41-.43v-2.48h-13.18v17.63h14.62v-4.81c.05-2.15-.07-4.3-.35-6.43,1.16.04,2.32.14,3.47.3.42.07.63.2.63.4h0Z"/>
</svg>